<svg version="1.1" id="Layer_1" xmlns="http://www.w3.org/2000/svg" xmlns:xlink="http://www.w3.org/1999/xlink" x="0px" y="0px"
	 width="100%" viewBox="0 0 1024 992" enable-background="new 0 0 1024 992" xml:space="preserve">
<path fill="#000000" opacity="1.000000" stroke="none" 
	d="
M773.423584,743.178345 
	C771.536926,742.531128 770.675903,741.301880 769.793762,740.078369 
	C768.857483,738.779663 767.704712,737.604248 766.120911,738.984192 
	C764.644714,740.270386 765.439026,741.841431 766.377869,743.013245 
	C772.624329,750.810059 775.422485,760.295471 779.210205,769.275024 
	C780.589233,772.544312 782.038330,776.025757 780.942871,780.474609 
	C771.591248,777.493347 763.032166,772.902954 753.457825,770.662964 
	C752.732788,772.178711 752.571289,773.678040 753.030640,775.666931 
	C757.254517,774.445068 759.643494,775.863464 762.192566,779.708862 
	C765.093628,784.085327 771.450989,784.569702 775.657898,787.874451 
	C778.074097,789.772461 781.390015,790.454468 783.660400,793.583740 
	C780.615662,794.206299 778.760376,792.789856 776.823303,791.680359 
	C768.729980,787.044617 760.683105,782.339966 751.958252,778.907471 
	C746.668762,776.826538 746.425842,775.732849 749.808411,770.160645 
	C741.874939,770.843628 735.930847,766.378723 729.200134,763.869690 
	C732.519653,766.429443 736.696350,768.055725 737.367371,772.878418 
	C737.457764,773.528503 738.084045,774.360229 737.854980,774.759338 
	C735.331177,779.156921 738.812561,781.762024 740.716675,784.850525 
	C740.958252,785.242310 741.001282,785.756653 741.605713,787.804810 
	C731.524963,784.123108 722.838318,779.233765 713.444336,778.621338 
	C712.164673,776.515503 714.760010,775.919006 713.606628,773.897095 
	C709.070129,773.555420 706.777161,769.630310 704.071716,765.941345 
	C706.919556,770.254211 705.184143,775.301575 706.847778,779.819031 
	C707.886719,782.640076 705.824951,785.035461 702.770386,786.070801 
	C699.961975,787.022583 697.070923,787.864502 695.080200,790.285217 
	C699.012146,801.071594 697.554138,806.459229 688.737671,813.951172 
	C687.723572,814.812988 686.678223,815.672546 685.824646,816.682922 
	C681.950195,821.268982 677.699219,823.093445 672.784058,818.506775 
	C669.344543,821.166382 665.291870,823.432556 663.888611,823.331726 
	C664.118713,826.203247 661.538818,827.200439 660.201477,829.045227 
	C657.312744,833.029663 655.381836,837.812073 653.712708,842.500671 
	C653.321472,843.599731 653.120239,844.363403 652.193298,844.987976 
	C647.795654,847.951294 643.258972,850.740662 639.103149,854.012817 
	C637.643005,855.162537 636.377441,856.080505 634.598572,855.999939 
	C633.944275,858.596680 636.366089,860.112366 636.233521,862.623291 
	C633.669434,865.001404 630.070190,865.364380 626.795776,866.130371 
	C607.112305,870.734558 587.156738,873.644592 566.919006,872.849243 
	C545.201233,871.995789 524.763123,866.690002 507.488312,852.542358 
	C503.769653,849.496887 499.954163,846.475952 498.497406,841.536804 
	C498.063019,840.063965 496.950256,839.467102 495.025787,839.641296 
	C493.172455,843.463440 495.451019,847.149902 496.155823,851.423157 
	C491.994049,849.824524 489.653442,846.886719 487.196167,844.094116 
	C486.535767,843.343628 485.854767,842.611267 485.187073,841.867126 
	C478.785004,834.732239 478.956421,831.886658 486.243500,825.324768 
	C484.531982,823.477478 482.784088,825.124084 481.180481,825.381348 
	C473.953430,826.540527 466.390930,826.916138 459.637634,829.426208 
	C448.443573,833.586609 436.910828,830.649597 425.682983,832.668518 
	C409.120667,835.646545 393.653107,830.449768 378.295135,825.262878 
	C375.333374,824.262573 372.649628,825.176392 369.959930,825.597351 
	C351.222382,828.530518 332.684326,828.327698 313.948975,824.727539 
	C302.938202,822.611694 292.153931,820.297363 281.935211,815.706970 
	C279.370483,814.554810 277.096802,812.761536 274.545990,811.569702 
	C272.343353,810.540649 270.302368,807.975403 267.400940,810.234924 
	C267.117554,810.455688 266.330048,810.397766 266.017334,810.156677 
	C261.377472,806.579224 257.896149,802.134888 257.289307,796.162109 
	C256.832794,791.669189 259.370056,788.683350 263.336243,786.741699 
	C264.816406,786.017090 266.152863,784.975098 267.493866,783.994507 
	C271.694855,780.922424 275.362549,777.644165 280.929871,776.094055 
	C286.240082,774.615540 291.302002,770.321350 293.757507,764.427917 
	C294.383148,762.926270 295.574463,761.962952 296.957458,761.425232 
	C305.660400,758.042114 309.074371,750.396057 311.653259,742.472473 
	C313.145660,737.887146 313.778320,733.095276 317.034149,729.218201 
	C319.456207,726.334045 319.129974,723.103027 317.780182,719.791870 
	C316.472198,716.583130 315.618958,713.339539 320.176025,710.287170 
	C315.808838,710.408691 315.360474,708.319702 315.538300,705.546753 
	C315.996155,698.406494 320.565125,693.367065 324.368103,687.957214 
	C327.845062,683.011047 330.579803,678.036133 328.291229,671.677490 
	C327.326172,668.996216 329.016998,666.531738 330.257019,663.306335 
	C320.854279,662.164551 315.764465,652.217224 305.069153,653.845398 
	C298.690948,654.816345 296.772552,650.310059 300.209442,644.633606 
	C302.440491,640.948608 300.305634,639.970154 297.180420,639.384766 
	C285.854645,637.263123 274.053375,635.369812 264.484070,629.091370 
	C247.261749,617.791931 228.480911,608.402039 215.281708,591.579651 
	C209.969040,584.808594 203.276886,579.033081 198.822540,571.608337 
	C194.427597,564.282471 189.421997,557.207581 186.906235,548.865662 
	C185.952316,545.702576 182.410553,543.531494 183.333099,539.562378 
	C183.394669,539.297424 181.791687,538.645630 180.458328,537.886414 
	C181.121780,540.663696 181.632553,542.801697 182.183716,545.108887 
	C179.245956,545.039307 179.108780,542.899902 178.504074,541.327698 
	C170.684082,520.996033 168.168091,499.725067 167.901321,478.159302 
	C167.698914,461.797485 170.109726,445.489227 175.460724,430.205963 
	C184.491577,404.412598 197.885010,380.887085 217.196075,361.037445 
	C229.499313,348.391052 243.374557,337.894287 258.569000,329.088867 
	C263.214447,326.396729 266.307770,323.510315 265.879364,317.412201 
	C265.613831,313.632507 267.050110,309.659088 268.121002,305.885712 
	C268.836243,303.365387 270.108093,301.119354 272.847351,299.792084 
	C277.145416,297.709503 279.276184,293.207703 282.577179,289.970551 
	C291.008972,281.701782 300.452637,275.267181 311.703278,271.897491 
	C318.679718,269.807983 325.892151,268.115936 333.356110,269.275269 
	C335.994385,269.684998 337.603271,268.467438 337.885132,265.869324 
	C338.530518,259.920380 339.066132,253.958878 339.580933,247.996811 
	C339.733307,246.231857 338.406158,245.400925 337.107574,244.559906 
	C335.307648,243.394241 334.101685,241.906128 334.962494,239.592651 
	C336.240509,237.990463 337.858887,240.406311 339.136444,239.152359 
	C341.287384,231.419769 339.892059,228.651230 332.894592,226.054932 
	C331.593567,225.572205 330.466583,224.309097 329.540771,223.176132 
	C322.733521,214.845551 317.518616,205.616730 314.014404,195.421204 
	C312.397339,190.716309 312.079681,185.969849 313.265503,181.164902 
	C314.204803,177.358658 313.287445,174.481964 310.123169,171.942505 
	C303.405975,166.551727 302.777679,159.342880 304.654022,151.527847 
	C306.414764,144.194229 309.427368,138.089050 317.675964,136.115997 
	C327.612793,133.739136 337.075531,129.966156 345.850647,124.753838 
	C354.728882,119.480286 363.073669,119.368927 371.330414,125.875221 
	C373.416962,127.519394 375.745880,128.854889 377.954468,130.345474 
	C379.803497,131.593384 381.541504,131.699280 383.459229,130.311005 
	C387.098785,127.676300 391.375305,126.796883 395.736572,126.716179 
	C399.657593,126.643600 401.894318,124.964134 402.987823,121.226074 
	C404.499268,116.059364 408.066467,112.500610 413.056763,110.879066 
	C419.716888,108.714958 423.843231,103.258270 429.179565,99.389549 
	C430.787811,98.223595 432.128387,96.143837 433.860718,95.786102 
	C442.173584,94.069527 450.128418,90.822670 458.960846,91.198586 
	C465.060059,91.458168 470.865265,91.923660 476.929291,93.177521 
	C484.169037,94.674477 490.332642,98.006859 495.652191,102.005096 
	C507.694000,111.056015 520.548340,118.201965 534.351318,124.080986 
	C542.899292,127.721794 551.078247,132.383347 556.892151,140.136017 
	C558.322266,142.043015 560.411377,143.039902 562.625305,143.958740 
	C576.105164,149.553192 582.323303,160.995773 580.595520,175.446274 
	C579.165588,187.404327 575.964600,198.941956 573.133240,210.566025 
	C571.807983,216.007065 572.535950,221.132675 573.796326,226.331833 
	C575.815674,234.661942 576.094849,243.009186 574.558228,252.128464 
	C572.259888,250.744583 570.334351,250.189865 568.659058,252.175705 
	C563.409729,258.398010 557.388794,263.996155 553.454346,271.275391 
	C551.992615,273.979828 551.675110,276.049377 554.968445,277.833466 
	C558.287292,279.631439 560.219055,282.758392 561.579346,286.321228 
	C564.078552,292.867371 568.223511,298.465179 572.172241,304.529266 
	C573.915894,302.429962 571.536621,300.828003 572.478210,298.744812 
	C575.107727,299.390961 576.199768,301.611755 577.331299,303.672943 
	C579.260376,307.186768 582.222534,308.073029 586.087769,309.064545 
	C597.799255,312.068756 609.544250,315.713257 615.951355,327.499573 
	C617.086426,329.587555 618.660217,330.826538 620.766296,331.539856 
	C628.318420,334.097717 635.878113,336.718262 643.327881,339.473541 
	C657.031067,344.541687 670.315491,350.768829 683.657471,356.772858 
	C688.487488,358.946442 689.966919,363.842407 691.344788,368.521210 
	C694.026855,377.628174 695.701477,386.953522 697.136169,396.320587 
	C697.731018,400.204315 699.133301,403.443695 703.215759,404.630463 
	C707.219849,405.794464 709.271057,403.008057 711.422363,400.352875 
	C718.492126,391.627106 728.010864,391.349457 737.861694,393.207092 
	C751.119812,395.707275 762.205505,402.927643 773.040833,410.439178 
	C778.921265,414.515717 784.506042,419.030487 789.557495,424.144501 
	C791.426086,426.036255 793.307678,427.933990 793.577454,431.159149 
	C790.017151,432.599060 788.908447,435.717133 788.173767,439.281982 
	C787.344910,443.303070 784.362244,446.021149 780.500061,446.119049 
	C770.170349,446.380920 761.424194,451.410309 752.091248,454.676605 
	C747.539795,456.269531 743.058228,458.061829 738.509338,459.662445 
	C736.848145,460.246979 735.074219,460.847229 732.756226,459.182373 
	C739.986877,456.535095 746.798767,454.124695 753.540100,451.530975 
	C756.166565,450.520477 758.648621,449.125885 761.170288,447.854370 
	C764.518677,446.166016 764.227295,444.139374 761.983337,441.542267 
	C756.269226,434.929230 754.346741,434.339203 746.757141,438.424896 
	C738.045898,443.114410 728.865784,446.742737 719.344482,449.040070 
	C713.848999,450.366089 707.851562,449.609650 702.907043,454.330078 
	C701.835327,449.283691 705.135010,447.560303 707.751160,446.874512 
	C713.844238,445.277374 717.242310,441.564026 719.463928,435.946320 
	C720.476379,433.385986 722.476685,431.180176 724.200684,428.946045 
	C726.592041,425.846832 726.215149,422.863525 723.472900,420.531708 
	C721.222534,418.618103 718.629089,417.119812 716.771545,414.726318 
	C715.878296,413.575409 714.500122,413.648773 713.650330,414.473511 
	C711.581543,416.480988 707.661987,417.766205 708.207458,420.976959 
	C708.728638,424.045258 707.433594,425.818237 705.958374,427.646667 
	C700.676270,434.193207 696.781860,441.101318 698.209290,449.988220 
	C698.430786,451.367004 698.189026,453.256958 697.373901,454.287842 
	C694.290161,458.188202 695.575745,461.534119 697.846130,465.180817 
	C699.785339,468.295441 699.575256,468.426239 703.431763,468.305603 
	C698.479675,473.621613 699.576355,479.208191 702.505493,484.815796 
	C704.170593,488.003693 706.031494,491.092255 706.249756,494.917419 
	C702.158447,488.323853 697.463135,482.106384 695.759216,474.227905 
	C693.953857,465.880493 688.724670,459.304504 683.780701,452.678314 
	C682.232727,450.603607 679.202454,450.565765 676.805359,450.453217 
	C666.163513,449.953583 655.515686,449.534180 644.975037,451.970947 
	C642.343140,452.579407 640.956177,453.839996 640.013306,456.202423 
	C636.743591,464.395142 633.313110,472.523834 630.052002,480.719910 
	C628.144653,485.513580 627.539856,490.318634 630.935303,495.113708 
	C635.061646,493.665802 637.516724,491.337463 636.900818,486.659821 
	C636.752808,485.535736 636.911072,484.311249 637.203186,483.205536 
	C637.517029,482.017731 638.359009,481.099976 639.759949,481.346619 
	C641.266479,481.611877 642.121704,482.482330 641.806824,484.159302 
	C640.077026,493.372162 643.426331,502.131561 644.506714,511.063507 
	C645.198364,516.781433 650.343506,520.604980 653.822510,525.001465 
	C657.120300,529.169006 660.894348,532.950378 664.117676,537.219543 
	C667.415588,541.587646 669.728943,541.372559 673.032104,536.863220 
	C674.503357,534.854736 675.929810,532.813354 677.401062,530.752686 
	C678.561890,533.876465 675.327393,543.618347 671.920837,545.244446 
	C668.372131,546.938354 664.808167,545.361938 662.176208,542.632996 
	C659.882324,540.254456 657.976318,539.955017 655.361267,542.137451 
	C651.724915,545.172241 648.574219,544.026306 646.156372,540.331848 
	C643.864807,536.830383 641.453857,533.496155 637.961670,531.022827 
	C636.091736,529.698425 634.558167,529.262634 632.645569,530.910461 
	C630.250732,532.973816 627.667847,534.817383 625.205444,536.804626 
	C624.294067,537.540161 623.360107,538.437256 623.526855,539.718750 
	C624.794922,549.461182 621.610229,559.651978 627.488586,569.056152 
	C629.115356,571.658630 629.970825,575.619507 630.716248,578.973328 
	C632.057251,585.006348 635.406067,589.974365 638.352905,595.043701 
	C640.241333,598.292175 639.520203,600.879639 638.527954,603.447815 
	C634.391479,614.154297 626.121521,621.119812 616.492371,626.713989 
	C615.486084,627.298645 614.481140,628.018738 613.380798,628.286255 
	C606.944519,629.851196 605.999084,634.475464 606.637573,640.050171 
	C606.711914,640.698853 606.485962,641.668030 606.836731,641.956360 
	C613.148926,647.144653 616.470459,654.951294 622.468567,660.422302 
	C624.703979,658.825073 623.483765,656.726318 624.084412,655.092224 
	C624.705933,653.400940 625.618347,651.973938 627.651672,652.329712 
	C629.766846,652.699829 629.303223,654.374695 629.179871,655.898254 
	C628.745667,661.261536 629.623474,666.483337 630.774902,671.712708 
	C631.797485,676.356934 635.359619,676.577271 638.837036,676.551086 
	C642.727905,676.521851 643.071045,673.450867 643.061768,670.464050 
	C643.050415,666.798828 642.866516,663.133301 642.898926,659.469116 
	C642.926331,656.364258 644.044434,654.338196 648.047974,655.368225 
	C647.437683,661.708313 646.595520,667.922974 648.076172,674.130798 
	C648.535950,676.058838 649.200378,677.450867 651.100342,678.323975 
	C657.510315,681.269287 664.067627,682.363525 671.008789,680.543030 
	C673.904053,679.783569 675.295532,678.084045 674.861206,675.111084 
	C674.454773,672.329407 674.528625,669.471497 673.408936,666.795349 
	C672.575256,664.802856 672.236206,662.581177 674.997131,662.011047 
	C677.587830,661.476013 677.075989,663.899048 677.471191,665.384521 
	C678.110168,667.786560 678.663513,670.226379 679.516357,672.553711 
	C682.034241,679.425171 682.295410,679.712646 689.583008,678.543213 
	C692.738953,678.036865 697.251038,679.028076 698.683228,675.773987 
	C700.249939,672.213928 696.225952,669.647278 694.398987,666.793823 
	C693.146790,664.838013 691.498474,663.140137 690.163940,661.231384 
	C689.262390,659.942017 688.938538,658.459900 690.060974,657.065918 
	C690.735718,656.228027 691.636719,655.862305 692.721497,656.171082 
	C694.392578,656.646667 694.427368,657.968567 694.383606,659.359192 
	C694.290527,662.314087 696.943665,663.926147 698.572937,665.159363 
	C701.187866,667.138611 702.963867,669.412292 704.627014,672.070740 
	C705.582642,673.598145 707.315979,674.067993 709.052612,673.199402 
	C710.997803,672.226501 710.812622,670.584778 710.120605,668.907410 
	C709.740723,667.986450 709.353577,667.052307 708.833740,666.207764 
	C702.172180,655.383606 698.413818,643.277832 693.391724,631.723450 
	C688.419312,620.283447 685.800476,608.031555 681.010559,596.663635 
	C674.755310,581.817993 674.224487,565.955139 670.481934,550.705872 
	C670.280151,549.883423 670.362000,549.045349 671.611938,548.352112 
	C674.075378,549.472961 673.803040,552.131042 673.816589,554.108948 
	C673.879211,563.200867 677.674866,571.595825 678.478882,580.529602 
	C678.573242,581.578003 679.243469,582.457092 680.418335,582.452271 
	C681.775085,582.446716 682.482422,581.568665 682.734192,580.275330 
	C683.300781,577.363953 682.251282,574.644043 681.565308,571.934143 
	C681.026672,569.806091 680.588074,567.716492 680.710083,565.541382 
	C680.951050,561.245728 683.658386,559.135437 687.381714,561.166931 
	C690.978882,563.129639 693.653564,562.067810 696.705322,560.537476 
	C699.668518,559.051575 702.694519,557.360657 706.057617,559.631042 
	C708.282288,561.132874 709.589417,562.727966 707.031982,565.146790 
	C697.726624,573.947998 701.781738,584.862244 702.409485,595.200500 
	C702.633728,598.893250 706.293152,596.657349 708.067871,598.412231 
	C708.882446,597.016541 709.592041,595.800720 710.462585,594.309082 
	C715.755859,599.115417 712.890381,606.431030 716.724976,611.406067 
	C720.717834,616.586487 718.674255,623.067200 719.685486,628.989685 
	C722.280884,625.332764 724.172119,621.755371 722.635986,617.179077 
	C721.687622,614.353943 721.237610,611.355591 720.643921,608.418884 
	C720.009583,605.281433 720.917786,603.273376 724.495239,602.884827 
	C727.124695,602.599304 729.708252,601.890991 732.488647,601.335876 
	C734.065735,602.605164 730.887939,605.413330 733.726257,606.274292 
	C736.166931,607.014648 738.073547,605.293701 739.410400,603.838135 
	C743.382874,599.513000 748.682129,600.848816 753.427795,600.241760 
	C756.430725,599.857544 756.504517,603.683228 758.102295,605.349976 
	C764.325378,603.166992 764.415710,603.210693 763.910889,608.146179 
	C769.121765,608.881348 774.306091,609.901978 779.346436,608.735168 
	C780.364685,611.302979 777.451111,612.012268 778.340332,614.194580 
	C780.743286,615.390320 782.945496,613.839050 785.156250,613.026794 
	C786.542175,612.517517 787.756287,611.364441 789.351013,612.117493 
	C792.378052,613.546692 797.234253,613.411377 797.376099,617.678772 
	C797.510254,621.713013 792.922668,621.259216 790.142944,622.392395 
	C783.399719,625.141418 777.088806,623.407166 771.067810,620.316223 
	C769.354187,619.436523 768.278442,619.440857 766.541260,620.042297 
	C761.627991,621.743530 756.717773,623.204956 753.555420,627.872131 
	C753.054443,628.611633 751.410889,628.563904 750.304810,628.909851 
	C748.862671,629.360840 747.607239,629.105286 746.850403,627.752441 
	C746.116882,626.441284 747.198669,625.597107 747.908264,624.705139 
	C751.366333,620.358948 752.836853,615.312378 753.858398,609.728699 
	C750.193115,609.427124 749.785156,611.730591 749.028564,613.690491 
	C747.721497,617.075806 746.706299,620.443970 743.094666,622.549927 
	C740.496338,624.065002 740.015564,627.742920 740.685120,630.201416 
	C741.329407,632.566589 744.033875,634.308655 747.266724,633.754089 
	C746.744812,636.798157 743.839355,638.277161 743.920105,642.934448 
	C749.981018,635.955078 753.992493,628.800598 761.325439,624.025330 
	C765.020691,630.202087 770.147339,631.027283 776.444824,626.832397 
	C768.332703,637.459656 761.177490,647.894653 757.778931,660.149109 
	C762.479553,663.400696 762.856689,656.083130 766.458069,657.963989 
	C767.781982,660.122253 764.115906,661.295288 765.628296,663.622742 
	C769.785400,663.775024 771.080566,655.770874 776.859192,660.217224 
	C776.860840,656.413147 775.452576,655.451111 772.552917,655.644104 
	C768.585083,655.908142 767.173096,654.084717 769.064392,650.769592 
	C772.457520,644.821899 776.955750,639.650513 782.046326,635.087219 
	C783.427856,633.848816 786.171997,632.504272 787.377136,634.361877 
	C788.520508,636.124084 793.155090,636.144043 790.595703,640.333191 
	C789.406250,642.280090 791.904785,643.415039 793.623962,643.955078 
	C802.038757,646.598572 810.412598,649.423645 818.947876,651.611267 
	C823.207520,652.703064 827.001831,654.800110 832.031982,654.532349 
	C837.684570,654.231506 842.964294,663.383545 842.573059,669.922729 
	C839.935974,669.191589 839.469055,666.110352 837.158142,664.962036 
	C836.229065,666.486084 838.279846,668.213562 836.704773,669.655334 
	C833.427612,669.981750 831.795227,664.797974 827.934570,666.779785 
	C827.336914,668.904053 830.026123,669.896851 829.447388,672.010315 
	C829.051147,672.999329 828.084839,673.218506 827.061218,673.306702 
	C816.201721,674.242065 805.769043,677.559814 797.332764,683.978088 
	C790.629089,689.078064 784.129700,693.200256 775.854919,694.497742 
	C774.480408,694.713318 773.220764,695.566833 773.552185,697.219360 
	C773.890015,698.903748 775.452454,699.080200 776.755859,698.805969 
	C780.825623,697.949585 784.922119,697.119324 788.885559,695.885010 
	C793.404114,694.477783 797.650024,695.088745 802.220886,696.633789 
	C801.401428,700.735229 797.953247,702.101257 795.085022,703.766113 
	C792.970032,704.993713 790.430481,705.486694 788.085876,706.323181 
	C786.338318,706.946716 783.289551,706.722534 783.974121,709.483704 
	C784.707458,712.441467 787.459656,712.235352 789.723206,710.966797 
	C797.905945,706.381165 806.726013,707.313538 815.478027,707.921814 
	C821.453735,708.337097 823.090027,710.338379 823.519409,716.257996 
	C823.765442,719.649902 826.433472,721.000916 829.302612,721.604736 
	C832.952393,722.372742 836.208191,723.979736 839.448914,725.676453 
	C841.764099,726.888550 843.499329,728.562317 843.576538,731.447266 
	C841.627625,733.098450 839.768860,731.876343 837.939636,731.351379 
	C830.748352,729.287354 823.645447,726.843140 815.974915,727.279114 
	C812.685608,727.466064 810.019531,725.271057 806.954773,724.548950 
	C805.265686,724.151001 803.012878,722.702393 802.062683,724.960083 
	C800.992065,727.503967 803.564819,728.370056 805.371277,728.891357 
	C815.337952,731.767334 820.084595,739.722900 824.329346,748.154419 
	C825.122986,749.730896 825.976196,751.465149 824.958557,754.093567 
	C820.865356,752.024170 816.795044,750.051758 812.809631,747.920471 
	C810.284729,746.570251 807.774048,745.344971 804.832214,745.315613 
	C802.499756,745.292358 800.819275,743.995300 799.183167,742.481995 
	C794.533936,738.181824 789.829590,733.929443 784.215881,730.878540 
	C782.529297,729.961914 780.842041,728.538818 777.767822,730.566040 
	C785.460693,736.717468 795.115967,740.606323 799.278198,751.263245 
	C790.016357,749.159363 782.666931,743.635193 773.423584,743.178345 
M273.739471,459.599762 
	C274.823212,450.027161 275.843079,440.446777 277.010315,430.884369 
	C277.994080,422.825562 280.281158,415.587311 288.831665,412.168182 
	C291.709442,411.017426 292.087311,408.603546 290.428040,405.981567 
	C288.133087,402.354980 288.322510,398.746460 290.446198,395.129059 
	C291.772430,392.870056 291.535522,390.804657 290.006317,388.635498 
	C283.573761,379.510986 280.788086,369.130646 280.079712,358.157257 
	C279.839081,354.429413 278.417633,351.980011 275.086090,350.237885 
	C270.397949,347.786346 266.395081,344.758179 266.563477,338.518280 
	C266.652985,335.202789 264.463806,334.794037 261.729187,335.879669 
	C253.843628,339.010254 246.813385,343.872040 240.528580,349.183533 
	C230.068817,358.023407 219.435196,366.787109 210.967255,377.861328 
	C198.110260,394.675476 187.570816,412.613312 181.264801,432.913574 
	C177.249985,445.837982 174.577225,459.062103 174.557724,472.561249 
	C174.541611,483.719177 173.916412,494.980896 177.017365,506.032501 
	C178.071167,509.788239 180.327881,513.960571 177.166428,518.429199 
	C180.524033,518.822876 181.261261,521.286621 181.810730,523.664734 
	C183.663834,531.684937 187.274094,539.046509 190.612564,546.455872 
	C192.392899,550.407166 194.338806,554.363098 196.419052,558.183105 
	C198.142715,561.348328 200.947617,563.903564 203.039108,566.893005 
	C218.478409,588.960632 238.653915,605.526672 262.716888,617.216919 
	C289.165924,630.066406 317.515625,634.312134 346.674347,634.020630 
	C349.814240,633.989319 353.003296,634.013611 356.071869,632.964111 
	C357.562439,632.454285 358.999451,631.927063 359.266296,630.210815 
	C359.550598,628.382385 358.032867,627.595642 356.789490,626.814087 
	C353.741302,624.898254 350.306427,624.295776 346.776459,624.064453 
	C344.010864,623.883240 342.363281,622.036560 342.107330,619.641113 
	C341.828400,617.030823 344.048584,616.162415 346.335938,615.630615 
	C355.260651,613.555603 364.144348,611.258789 373.454773,612.562073 
	C377.389679,613.112854 380.499298,611.408264 383.471191,608.987000 
	C388.460632,604.921997 394.092346,602.267700 400.616302,601.532288 
	C407.082336,600.803345 412.193054,598.360657 414.513306,591.384338 
	C415.908295,587.189941 418.880310,583.546570 420.812805,579.497620 
	C423.230713,574.431702 423.865936,569.577881 420.412964,564.233704 
	C417.317932,559.443359 414.190765,554.193237 415.585297,547.840332 
	C415.754028,547.071777 415.512726,546.189941 415.364319,545.378418 
	C412.618561,530.365784 413.636780,515.173767 413.718597,500.086761 
	C413.818176,481.711975 412.864990,463.501160 409.845428,445.388336 
	C409.439484,442.953339 408.207672,441.184174 405.674713,441.210968 
	C395.694092,441.316406 386.728180,438.051514 378.131592,433.364105 
	C377.004944,432.749817 375.702820,431.854492 374.397675,432.802521 
	C372.856293,433.922119 373.508453,435.475342 373.945282,436.909637 
	C376.567657,445.520325 378.047333,454.381866 379.904083,463.169281 
	C383.755585,481.397247 386.594604,499.634125 386.526581,518.394714 
	C386.486877,529.346924 383.183838,537.405151 373.553009,542.750854 
	C370.220612,544.600525 369.638092,547.380798 371.365021,550.825378 
	C373.753448,555.589233 376.003998,560.423828 378.241760,565.261292 
	C380.471466,570.081299 378.216980,573.667725 372.875458,574.261780 
	C356.502075,576.082642 340.162170,578.243835 323.763000,579.778870 
	C314.474243,580.648376 305.261108,582.009460 295.999542,583.014832 
	C290.148804,583.650085 288.012665,580.918823 289.652985,575.203247 
	C290.709442,571.522034 291.839569,567.861267 292.981659,564.205383 
	C295.570709,555.918091 295.723724,555.649597 288.046417,551.650208 
	C278.669373,546.765320 273.379608,539.502869 272.873993,528.850647 
	C272.629395,523.697571 272.113647,518.555237 271.946930,513.400757 
	C271.375397,495.729675 272.213104,478.098907 273.739471,459.599762 
M412.428802,783.568237 
	C416.240326,782.559570 420.207916,782.273438 423.530579,779.569153 
	C429.569244,774.654175 435.802063,769.969177 442.074432,765.351990 
	C451.852509,758.154297 462.138031,751.664429 471.572845,743.976196 
	C474.924530,741.244934 475.648346,739.161438 471.895203,736.145081 
	C467.885468,732.922485 463.789368,729.758301 460.354950,725.850220 
	C458.355927,723.575562 457.940216,720.414612 455.622314,718.296326 
	C451.616089,714.635193 448.685394,710.289673 447.584686,704.798096 
	C444.324005,688.530701 451.745117,675.960510 461.863129,664.608521 
	C468.416351,657.255981 476.988403,652.132385 484.702728,646.067749 
	C491.686584,640.577393 491.235870,632.658691 483.671478,627.678589 
	C480.769836,625.768250 478.312134,625.331665 475.254059,628.109192 
	C467.421631,635.223145 459.191040,641.948303 451.125458,648.740234 
	C444.026886,654.717834 438.285767,661.052979 434.215698,669.076172 
	C429.766785,677.846069 430.207916,687.473083 430.130402,696.952026 
	C430.108765,699.599792 430.171631,702.210876 428.168488,704.621094 
	C425.326355,703.583740 423.987915,701.910583 424.486176,698.941040 
	C424.820099,696.950928 425.007751,694.997314 423.595947,693.225769 
	C420.909973,689.855469 418.200012,686.496338 415.687805,682.997803 
	C413.423615,679.844604 411.088531,679.628174 408.225861,682.129578 
	C403.768036,686.024841 399.284698,689.892700 394.746918,693.694336 
	C380.731506,705.436035 366.848724,717.344727 352.590179,728.784424 
	C343.884125,735.769470 336.657867,744.358154 328.010590,751.242004 
	C316.689636,760.254272 305.936584,769.923035 294.623566,778.925964 
	C291.108215,781.723572 287.630005,784.581360 284.298279,787.592529 
	C279.914490,791.554565 280.337982,794.067200 285.684814,796.323120 
	C293.874969,799.778625 302.534821,801.522095 311.281647,802.625061 
	C327.361084,804.652710 343.504364,804.401733 359.569000,802.560364 
	C367.961609,801.598328 376.482758,800.346252 384.324036,797.147583 
	C393.706360,793.320251 402.843384,788.829102 412.428802,783.568237 
M593.708679,417.262238 
	C591.062195,402.927368 586.175598,389.395599 579.131714,376.639435 
	C577.999573,374.589233 576.275879,373.574585 573.904358,373.311951 
	C570.865112,372.975403 566.113220,372.764252 566.847656,369.101532 
	C567.620911,365.244934 572.156616,367.312805 575.099915,367.790894 
	C586.905518,369.708435 598.421997,373.177948 610.400391,374.243134 
	C613.268738,374.498199 615.403564,374.493652 617.316406,371.835724 
	C619.165588,369.266357 621.474060,370.225555 622.996216,372.523254 
	C623.800598,373.737396 624.037292,375.318085 624.592102,376.708588 
	C627.854187,384.883484 628.292969,385.059784 635.707581,380.957031 
	C636.987366,380.248901 638.179504,380.007996 639.444702,380.852539 
	C640.228333,381.375610 640.459412,382.134735 640.242798,383.023712 
	C639.088074,387.764526 639.182739,392.666687 638.006165,397.454254 
	C635.892456,406.055298 634.452698,414.821899 632.586792,424.249481 
	C635.348145,421.531158 634.067810,417.886627 636.297913,415.398346 
	C638.437073,425.099152 639.355225,425.727722 649.304443,423.001160 
	C659.454895,420.219482 669.600403,419.915222 679.919678,421.858887 
	C688.132019,423.405701 689.403076,421.889130 688.894714,413.522858 
	C688.116455,400.715332 685.840942,388.208801 681.570251,376.148895 
	C679.987793,371.680328 680.263123,365.642303 674.421692,363.746826 
	C657.509399,358.258911 642.489807,348.119141 625.113647,343.796204 
	C624.500854,343.643799 623.845398,343.231720 623.438293,342.748230 
	C618.117615,336.429474 610.519531,335.944305 603.227051,335.191864 
	C587.153870,333.533386 573.967468,341.003387 560.849915,348.909668 
	C555.825439,351.938080 555.339844,355.707794 556.846436,360.484589 
	C561.055420,373.829987 561.317505,387.686981 562.025635,401.450165 
	C562.582520,412.274780 560.470093,422.971161 559.164062,433.667908 
	C557.675110,445.862732 554.648682,457.781555 551.728394,469.731354 
	C549.049988,480.691132 542.277893,490.579315 545.036865,503.083771 
	C547.977539,516.411743 547.921082,530.253113 548.434509,543.927856 
	C548.441711,544.121033 548.841797,544.299377 549.099976,544.520142 
	C549.579468,543.907410 550.056030,543.298523 550.887146,542.236511 
	C551.638306,544.989319 552.289124,547.352478 552.926697,549.719299 
	C553.348694,551.285522 554.091492,552.842957 555.946716,552.214172 
	C558.404846,551.380920 561.080566,551.376587 563.274170,549.388489 
	C567.564880,545.499695 571.600403,541.342041 576.398865,537.956909 
	C579.638855,535.671204 583.354614,534.132874 586.211914,531.167725 
	C591.921936,525.242371 597.630249,519.401245 605.227478,515.537720 
	C611.652222,512.270508 613.279602,505.484833 612.178467,499.075439 
	C609.399353,482.900055 607.030212,466.667938 602.320862,450.795990 
	C599.123962,440.021576 597.153870,428.819763 593.708679,417.262238 
M527.622681,387.177155 
	C527.279846,384.927673 527.164551,382.576477 525.138855,381.021881 
	C520.675659,382.322601 519.584778,385.378998 520.513977,389.223999 
	C521.351746,392.690735 521.090149,396.165192 521.309570,399.641846 
	C521.927002,409.423431 518.641602,418.705902 517.848877,428.303314 
	C517.255676,435.484009 515.424988,442.377472 511.809113,448.646454 
	C509.502441,452.645660 508.107086,457.329315 506.787415,461.350342 
	C503.597961,471.068451 498.722778,479.726227 494.148773,488.649078 
	C491.863678,493.106812 487.877930,496.530792 485.789307,500.852875 
	C483.760498,505.051270 481.731232,509.177887 479.124725,513.024109 
	C467.820801,529.704285 455.103638,545.221130 441.105835,559.725708 
	C435.554260,565.478271 432.880585,573.768250 425.345551,577.859375 
	C424.873230,578.115845 424.456085,579.032776 424.505066,579.599915 
	C424.820404,583.252625 422.418518,585.813538 420.965454,588.742432 
	C418.453369,593.805969 415.735199,598.760681 413.909180,604.151672 
	C412.759491,607.546021 413.576813,609.596924 417.071106,610.419189 
	C419.021790,609.359436 419.343140,607.545532 419.818207,605.769592 
	C421.071747,601.083252 422.905273,596.622314 425.352051,592.431763 
	C426.697205,590.127869 428.347290,588.477417 431.694916,590.568848 
	C428.349335,596.556396 425.278687,602.451416 423.430023,608.849792 
	C422.707001,611.352173 421.515839,613.931213 425.495697,615.234497 
	C429.241516,616.461182 431.120209,615.247559 432.257294,611.723755 
	C434.310547,605.360535 437.246948,599.384644 440.627930,593.625305 
	C441.798584,591.631165 442.921814,589.538025 445.636566,590.112427 
	C446.364380,590.987000 446.054932,591.568848 445.875732,592.219238 
	C443.747650,599.942810 438.833954,606.565125 437.112915,614.453186 
	C436.765778,616.044067 435.655304,617.696472 437.557159,618.947388 
	C443.487305,622.847656 449.265839,627.039368 456.374817,629.658630 
	C459.321289,623.842163 459.471100,617.334229 463.115448,612.242065 
	C464.547211,610.241516 465.077545,605.943420 468.355804,607.782837 
	C471.941528,609.794739 467.996643,612.326660 467.010651,614.325256 
	C464.673279,619.063171 462.245392,623.671143 462.446808,629.586670 
	C466.443878,629.472656 468.692078,627.105530 471.064941,625.201538 
	C477.553650,619.994995 483.767059,614.430481 490.419037,609.447632 
	C494.366302,606.490845 496.792542,602.932983 498.298126,598.326965 
	C508.804932,566.184509 523.014893,535.493469 535.322754,504.056335 
	C541.990723,487.024811 547.750854,469.629822 551.548462,451.701202 
	C556.687195,427.440948 558.341492,402.967682 554.703247,378.307495 
	C553.745483,371.814911 553.077209,365.194824 549.061096,359.375885 
	C543.886047,361.532104 541.300659,366.168732 537.266663,368.965393 
	C532.701721,372.130188 531.518311,376.106781 532.655151,381.507111 
	C533.996948,387.880676 533.589478,394.432770 532.881897,400.892029 
	C532.677612,402.757141 532.273743,405.372009 529.586792,405.018036 
	C527.199707,404.703552 527.621887,402.374359 527.639526,400.536896 
	C527.679565,396.372955 527.650513,392.208374 527.622681,387.177155 
M652.539856,708.983704 
	C649.918762,705.974243 646.728088,703.289795 644.789307,699.891174 
	C640.022949,691.535767 633.605591,684.371216 627.923950,676.763550 
	C622.417114,669.389954 616.141418,662.522522 611.016418,654.784058 
	C610.240723,653.612854 609.585510,652.024353 607.709656,652.385803 
	C605.575928,654.948181 609.038391,658.266602 606.163696,661.296021 
	C599.263489,652.747864 604.155701,642.820679 602.202393,633.411682 
	C597.165100,635.341187 591.712708,635.092957 587.258423,636.773438 
	C580.229858,639.424988 573.036926,639.971191 565.885315,641.236328 
	C561.396667,642.030396 555.888123,638.922302 552.510437,641.984680 
	C549.038574,645.132324 549.724731,651.028687 548.756592,655.701416 
	C547.302246,662.721313 546.697754,669.831482 554.063416,674.831848 
	C556.729736,676.641968 558.638000,679.626160 560.741638,682.197754 
	C569.784851,693.252563 578.969910,704.228149 586.546204,716.362488 
	C591.041565,723.562378 597.116211,729.957764 598.236694,739.049622 
	C598.597961,741.981628 599.952148,745.097290 602.776855,747.007324 
	C603.406006,746.666199 603.876343,746.489990 604.252075,746.193787 
	C605.740967,745.019287 607.250183,742.561707 609.201172,744.715149 
	C611.002258,746.703125 608.939941,748.358337 607.359741,749.546326 
	C603.597473,752.374817 603.289490,757.662048 599.369873,760.478760 
	C598.345825,761.214661 597.682312,763.381653 599.164551,765.225159 
	C602.587036,765.118286 605.015869,762.446350 608.091492,761.339417 
	C618.483093,757.599670 629.067566,754.953857 640.167358,754.591370 
	C642.407654,754.518250 645.583496,755.004517 646.312439,752.412659 
	C647.600525,747.833008 650.870544,748.507202 653.856812,748.980347 
	C658.310242,749.685852 662.437622,751.524963 666.423401,753.691345 
	C669.505127,755.366333 668.695435,757.706604 667.906311,760.126343 
	C666.950806,763.055847 664.899597,762.061768 663.017822,761.389832 
	C660.631653,760.537720 658.160034,760.377258 655.663940,760.141968 
	C634.711182,758.166687 615.345764,763.659668 597.039368,773.168457 
	C590.794495,776.412292 586.547485,781.877380 587.271179,789.778076 
	C587.495789,792.230225 587.926819,795.085205 590.793518,794.762146 
	C593.082642,794.504150 594.385742,791.908203 593.948975,789.316101 
	C593.611877,787.315491 593.590576,785.702209 595.767456,784.767944 
	C601.127197,782.467773 606.655457,780.231445 612.399841,779.791931 
	C626.537231,778.710205 640.520935,780.333313 654.435364,783.145203 
	C666.000305,785.482239 677.737854,787.790100 689.579712,786.511658 
	C699.155212,785.477905 706.448547,779.715332 700.615540,769.017456 
	C696.087769,760.713379 690.194336,753.623291 683.947388,746.693176 
	C673.143860,734.708374 663.047852,722.132812 652.539856,708.983704 
M495.933502,178.503967 
	C500.775055,175.450500 505.115479,171.899612 508.001984,166.806198 
	C508.767761,165.454926 509.994629,164.245697 511.665100,165.366653 
	C513.321167,166.477921 512.618530,168.031708 511.771484,169.330521 
	C509.579620,172.691422 507.128998,175.824417 503.891235,178.291183 
	C502.347900,179.466995 500.540802,180.590225 500.835022,183.285873 
	C504.237854,185.440063 509.033936,184.400085 512.081299,187.753616 
	C513.185974,188.969360 514.154541,191.459457 516.369446,190.193527 
	C518.433472,189.013840 517.784851,186.570770 517.471008,184.677826 
	C516.646667,179.705872 516.303711,174.732513 517.098328,169.756866 
	C519.208069,156.546738 528.392822,150.463104 540.192383,147.072128 
	C542.235535,146.484970 544.806396,146.384155 545.380066,143.834946 
	C545.993835,141.107559 543.694458,139.640488 541.947754,138.194366 
	C537.154053,134.225677 531.534912,131.680222 525.876953,129.219574 
	C515.043091,124.507996 504.214722,119.915550 495.152161,111.898315 
	C488.897614,106.365173 481.428162,103.200928 472.893219,101.978790 
	C467.872620,101.259880 463.181030,98.890060 458.187134,101.901588 
	C457.667480,102.214958 456.501282,101.823631 455.819763,101.435219 
	C453.351746,100.028633 451.002625,100.804878 448.596283,101.545296 
	C447.016113,102.031502 445.288818,102.976479 443.811829,102.706581 
	C435.201355,101.133186 432.874023,109.945419 425.511261,111.878899 
	C431.045959,117.235641 436.234131,120.528351 441.128021,124.185333 
	C442.516815,125.223099 444.746368,125.947830 443.117188,128.371429 
	C441.610046,130.613419 439.992188,129.430832 438.437378,128.365250 
	C433.907806,125.260986 429.540009,121.882957 424.818298,119.106216 
	C418.578979,115.437027 412.651245,118.173935 410.304260,124.950851 
	C408.323853,130.669220 411.052032,135.619431 411.866821,140.948563 
	C413.065674,148.789688 418.267761,151.241470 424.872528,152.265991 
	C427.118286,152.614334 429.494781,152.015167 431.806305,152.069611 
	C435.146362,152.148300 438.708466,152.205536 436.680664,157.346497 
	C436.175720,158.626648 437.008392,159.568359 437.642242,160.538116 
	C438.452209,161.777390 439.733490,163.111664 438.136566,164.467331 
	C436.361603,165.974182 435.027893,164.429611 433.876068,163.295761 
	C430.079865,159.558914 425.466980,157.415390 420.414856,155.993225 
	C401.471130,150.660690 383.318909,143.555420 366.518799,133.068405 
	C357.817291,127.636726 353.393005,128.344788 346.819519,134.630417 
	C349.230927,135.622299 351.704437,135.479767 354.110107,135.795013 
	C359.340698,136.480423 364.522980,137.623566 366.977509,143.011032 
	C368.534180,146.427765 371.021759,148.509995 374.145447,150.296127 
	C386.080322,157.120468 396.709503,165.640671 406.252197,175.522247 
	C413.585846,183.116302 421.232086,190.679428 431.424744,193.897202 
	C446.562042,198.675980 448.112671,199.303955 451.925079,183.591919 
	C453.371643,177.630310 454.078278,171.433411 456.815887,165.827896 
	C457.678192,164.062225 458.604065,161.666718 461.126648,162.789291 
	C463.821869,163.988708 461.721375,165.901138 461.105896,167.404434 
	C459.262665,171.906494 458.209015,176.607605 457.372284,181.369110 
	C456.776978,184.756821 457.652313,186.966690 461.677399,186.746841 
	C466.039093,186.508591 470.316254,187.128738 474.512939,188.315369 
	C475.659851,188.639664 477.054230,189.063751 477.858978,188.163803 
	C482.556122,182.910919 489.448151,181.889801 495.933502,178.503967 
M452.400848,694.651917 
	C451.753357,699.927185 454.159119,704.571350 456.566681,708.699951 
	C461.517426,717.189514 467.857758,724.619873 475.969299,730.550537 
	C479.703674,733.280884 482.726410,734.828918 487.215820,732.548401 
	C489.893433,731.188171 492.142517,732.019104 491.931976,735.800110 
	C491.618958,741.421692 491.572144,747.062317 491.112061,752.670227 
	C490.630005,758.545654 488.129181,763.356628 483.387817,767.189575 
	C479.846863,770.052185 476.290161,773.068726 473.383301,777.271423 
	C478.861420,781.255249 485.000092,782.433472 490.943420,784.417480 
	C504.984131,789.104370 519.278076,789.756470 533.786133,788.678101 
	C540.422974,788.184814 546.993530,787.097290 553.218689,784.532959 
	C556.475525,783.191284 558.084167,781.554199 555.778625,777.777405 
	C551.475159,770.727722 547.130615,763.712708 542.690369,756.745483 
	C534.741211,744.272522 527.133484,731.580566 519.468323,718.928467 
	C509.306824,702.155823 498.743164,685.596680 491.302277,667.338684 
	C490.596161,665.606079 488.488098,663.990112 490.169464,661.916077 
	C492.144836,659.479492 493.991333,662.334290 496.047272,662.499695 
	C499.256805,653.503357 502.430481,644.607544 505.604187,635.711731 
	C503.059418,636.537415 501.150024,637.630127 499.688263,639.152588 
	C491.385651,647.800049 481.817474,654.956848 472.389008,662.242981 
	C461.833221,670.400330 454.264008,680.237915 452.400848,694.651917 
M567.680176,183.312164 
	C568.275940,179.207336 568.953552,175.112396 569.450439,170.995636 
	C570.502686,162.276855 565.195435,154.874756 557.018860,151.747238 
	C550.919250,149.414154 545.494080,151.647690 539.960266,152.811050 
	C530.641846,154.770035 523.845764,159.744736 522.509949,170.100861 
	C521.837830,175.311813 522.582825,180.420975 523.292969,185.510727 
	C524.622437,195.039581 523.770874,205.429428 533.482483,211.844086 
	C535.280579,213.031754 536.295227,215.690765 534.736694,217.638046 
	C532.920532,219.907288 530.557007,222.323669 527.690125,222.769028 
	C524.877014,223.205994 524.333130,220.063339 523.505432,217.948120 
	C522.901550,216.404984 522.441345,214.794937 522.046204,213.183044 
	C521.215698,209.795334 520.774597,206.279938 519.626160,203.009171 
	C517.281311,196.331116 511.823120,195.103470 506.896423,200.041550 
	C504.424255,202.519379 502.509552,205.437851 501.057495,208.677841 
	C499.550201,212.041046 500.095367,214.584015 502.981873,217.040176 
	C506.776459,220.269135 510.358765,223.770401 513.829102,227.351562 
	C517.881042,231.532928 521.533752,236.110184 525.685669,240.183441 
	C531.332397,245.723267 538.775574,243.379303 540.945740,235.856491 
	C542.178894,231.582031 543.946106,227.437119 545.764038,223.363861 
	C547.165222,220.224335 549.628723,217.944016 552.992493,216.871262 
	C554.828003,216.285889 556.837158,216.133774 557.868652,218.085632 
	C558.982483,220.193283 557.551697,221.738464 555.743103,222.406967 
	C551.737732,223.887405 550.454285,227.226669 549.485352,230.829239 
	C548.185608,235.662354 547.011047,240.524384 543.482910,244.375320 
	C542.483826,245.465775 541.200439,246.669510 541.805237,248.293350 
	C542.573914,250.357315 544.538025,249.723770 546.142517,249.702728 
	C547.684265,249.682495 549.354858,249.636810 549.941528,251.365005 
	C550.568909,253.213303 549.252075,254.550064 548.026062,255.661530 
	C546.121155,257.388428 543.735168,257.438812 541.411194,256.894623 
	C537.337097,255.940613 533.563843,254.304718 530.013611,251.993423 
	C521.003601,246.127670 515.517883,236.934280 508.259644,229.422165 
	C498.975159,219.812897 489.552002,210.299149 475.453888,207.948746 
	C473.258057,207.582657 471.216522,207.117188 469.440430,209.792114 
	C482.373718,221.143295 490.196045,236.449051 500.383240,249.967621 
	C504.206390,255.041016 508.272766,259.837219 512.954651,264.140320 
	C531.740601,281.406250 555.611511,267.469147 562.063049,252.620087 
	C566.049011,243.445831 564.619141,233.651978 562.050842,224.205948 
	C561.025269,220.433838 560.444885,216.789795 561.326843,212.906204 
	C563.498352,203.344009 565.529724,193.750000 567.680176,183.312164 
M317.372101,426.932037 
	C314.805725,427.628967 312.272766,428.509979 309.665741,428.982849 
	C304.891846,429.848755 303.065857,432.584320 303.041687,437.361237 
	C303.021637,441.321747 302.234497,445.285431 301.694519,449.235077 
	C299.602814,464.534485 293.796570,478.928589 290.832520,494.041870 
	C287.549683,510.780701 292.043549,525.044128 302.615234,537.930847 
	C305.351318,541.266113 308.447113,542.631897 312.645477,541.691040 
	C325.020172,538.918152 337.631927,538.015686 350.236633,537.222717 
	C354.176239,536.974854 356.612335,535.184875 358.750885,532.107544 
	C370.598572,515.058350 368.439453,497.007935 362.875092,478.632812 
	C361.991211,475.714050 358.671082,475.204681 357.564423,472.287689 
	C356.432037,469.302887 356.443634,466.058685 355.231232,463.289795 
	C350.760040,453.078461 346.801117,442.723816 345.047272,431.679993 
	C344.325195,427.133240 341.633179,425.575165 337.527740,425.325989 
	C331.016022,424.930725 324.572510,425.431519 317.372101,426.932037 
M509.837189,329.423187 
	C513.614380,323.936127 517.367004,318.431885 521.183838,312.972595 
	C522.310242,311.361511 523.297363,309.694946 521.590210,308.071411 
	C518.873535,305.487762 515.381836,304.636536 511.864227,305.479767 
	C508.769165,306.221741 508.299713,309.050873 508.340149,311.906250 
	C508.410400,316.862915 507.245178,321.680969 504.493225,325.666992 
	C499.625549,332.717590 499.117218,341.771210 493.576965,348.441162 
	C493.350403,348.713959 493.589813,349.373779 493.631927,350.279236 
	C496.052887,351.086914 498.416290,350.773132 500.823883,350.034058 
	C507.181702,348.082336 512.435303,344.316193 517.395508,340.054474 
	C518.801392,338.846558 520.217163,337.446716 522.234009,338.699341 
	C524.245789,339.948853 523.737732,341.966217 523.196411,343.663177 
	C520.787781,351.213776 515.566101,356.391937 508.838623,360.248718 
	C507.046356,361.276215 505.273315,360.969727 504.611145,359.217926 
	C503.201385,355.488281 500.421570,356.016632 497.616272,356.493683 
	C495.477081,356.857452 493.340607,357.498260 491.187927,357.035522 
	C488.456451,356.448334 486.802551,357.614502 485.374023,359.778137 
	C484.375977,361.289734 483.077576,362.613953 481.840607,363.954773 
	C478.382202,367.703522 478.905548,369.960480 483.878387,371.249207 
	C486.257629,371.865875 488.821350,371.787231 491.304962,371.979187 
	C493.092865,372.117371 495.026062,371.718414 496.393066,373.557556 
	C496.295105,376.957184 493.950806,377.180542 491.267792,377.400940 
	C477.957092,378.494415 470.083435,368.169891 460.557434,362.018250 
	C453.737915,357.614349 452.210968,347.792236 445.956970,341.809784 
	C443.114014,339.090271 443.944153,333.888245 442.706787,329.920380 
	C441.832794,327.117737 440.915070,324.234619 437.292511,323.768799 
	C436.074066,327.341492 436.091095,327.337677 436.721588,330.148804 
	C440.336334,346.265167 447.003357,361.080872 456.039215,374.832794 
	C462.830475,385.168549 472.451233,390.497253 484.944214,390.777374 
	C495.474854,391.013428 504.891541,388.049988 513.711365,382.385254 
	C525.898865,374.557526 535.197144,363.478485 546.092957,354.205566 
	C557.686035,344.339264 569.703491,335.143341 584.375488,330.265045 
	C589.483521,328.566711 594.767090,327.396423 600.267151,325.904510 
	C598.080872,322.166656 594.008545,322.841095 591.503723,320.824432 
	C588.629150,318.510040 585.880737,319.404846 583.994263,321.670349 
	C582.123230,323.917358 579.782593,324.788605 577.331055,325.745270 
	C573.596008,327.202850 569.962952,328.881927 566.677856,331.181427 
	C565.040527,332.327515 563.483643,333.426880 561.973694,331.377655 
	C560.523010,329.408813 561.176392,327.506104 563.085327,326.203308 
	C565.005981,324.892517 567.111938,323.856873 569.083984,322.616821 
	C573.092468,320.096222 573.108887,318.795502 569.294617,316.259613 
	C565.555237,313.773499 561.833923,311.260010 558.113708,308.745239 
	C554.768616,306.484039 551.771362,304.169159 554.519470,299.431030 
	C555.297302,298.089996 554.942322,296.313354 553.248169,295.618530 
	C551.406982,294.863403 550.573425,296.378357 549.787231,297.675964 
	C548.385986,299.988922 547.691833,302.530823 547.172119,305.175964 
	C545.769226,312.316650 543.002869,318.879303 538.260437,324.474609 
	C535.516724,327.711792 533.681274,327.458923 532.295105,323.460663 
	C531.143738,320.139648 529.141052,317.791626 526.026550,315.735260 
	C520.655762,320.901947 517.741577,327.612915 513.218445,333.075104 
	C511.592560,335.038574 510.681976,340.296661 507.126190,337.757111 
	C503.169373,334.931183 508.240173,332.574829 509.837189,329.423187 
M575.574097,628.944641 
	C578.670044,627.747742 581.785889,627.873535 584.858337,628.955566 
	C587.705811,629.958374 589.863586,629.269653 592.000488,627.087158 
	C594.807312,624.220520 598.219971,620.935181 602.228516,621.508606 
	C612.157288,622.928833 618.486084,616.850281 625.189575,611.613831 
	C631.204102,606.915649 631.361511,604.095703 629.451416,596.757141 
	C626.989929,587.300171 623.067810,578.302002 621.458740,568.556030 
	C619.927979,559.283997 615.645325,556.259583 605.860352,556.654053 
	C603.942261,556.731445 604.455383,554.744507 602.935364,554.824158 
	C596.418701,560.038147 589.939697,565.519653 583.151672,570.587341 
	C571.312073,579.426392 561.073853,590.291382 548.335327,597.983093 
	C546.052917,599.361267 545.003357,601.691895 544.425842,604.130432 
	C542.183960,613.596375 540.060303,623.090332 537.878479,632.635864 
	C539.381042,632.866272 540.182739,631.045898 541.732727,631.997681 
	C547.577332,635.586121 552.833496,633.492798 557.767578,629.952393 
	C559.707764,628.560181 561.699646,627.780090 563.762817,629.027100 
	C567.485901,631.277283 571.101746,630.465088 575.574097,628.944641 
M475.604584,361.505249 
	C482.360535,359.050629 484.212433,353.188293 485.601654,347.040100 
	C487.194153,339.992065 487.059265,332.828033 486.963715,325.664734 
	C486.936584,323.630463 487.082916,321.337341 489.699280,321.050873 
	C492.320770,320.763885 492.968109,322.807098 493.223724,324.949738 
	C493.399261,326.421234 493.278412,328.201813 495.256104,328.466858 
	C497.003448,328.701050 497.906097,327.240265 498.697205,325.985992 
	C501.633453,321.330322 502.772400,316.119019 502.663513,310.723633 
	C502.519165,303.569122 502.046600,296.419678 501.633087,289.272827 
	C501.448547,286.083435 502.554474,284.412262 505.963959,283.886810 
	C510.341797,283.212097 513.620850,279.129272 513.452942,274.676422 
	C513.280396,270.100342 509.990997,268.063843 506.349335,266.467957 
	C505.804840,267.137756 505.416107,267.393707 505.420624,267.642487 
	C505.587616,276.822571 500.011871,283.480865 495.369904,290.538086 
	C494.574524,291.747345 493.711365,293.417297 491.863159,292.339508 
	C489.897766,291.193390 490.589935,289.526428 491.521637,288.019867 
	C492.922974,285.753937 494.454987,283.565308 495.784760,281.259247 
	C501.013916,272.190918 500.887024,269.639740 494.088257,261.642853 
	C490.256287,257.135559 486.919800,252.200577 485.164581,246.733063 
	C482.752319,239.218781 477.714661,236.513596 470.596527,236.358475 
	C466.637268,236.272202 462.401917,235.296600 458.533417,238.661469 
	C464.475922,244.484406 471.231384,247.667786 479.047974,248.621429 
	C481.326172,248.899368 482.940552,249.335342 482.546021,252.186203 
	C482.279785,254.109802 483.627228,255.625534 484.324799,257.296265 
	C487.106323,263.958191 484.124756,270.223022 477.160339,272.148956 
	C471.070618,273.832977 465.905975,271.825806 461.709076,267.508362 
	C457.056061,262.721710 456.545959,256.794342 458.611572,250.765533 
	C459.793060,247.317169 459.792328,244.998001 455.921600,244.015976 
	C454.003601,244.853333 454.130371,248.453430 451.406311,247.351273 
	C448.784210,246.290375 450.335632,243.974243 450.493286,242.094116 
	C450.809174,238.327103 448.043182,238.955490 446.114655,239.549164 
	C439.513885,241.581116 433.094788,243.979370 430.618256,251.496399 
	C429.997498,253.380600 429.209900,255.315170 428.050018,256.897522 
	C423.896851,262.563538 424.049622,268.243561 427.409515,274.149139 
	C428.315948,275.742340 429.349548,277.694977 427.992645,279.297119 
	C426.155731,281.466003 426.891541,283.559845 427.262939,285.838867 
	C427.554199,287.626282 427.157715,290.136688 429.437988,290.314331 
	C433.073700,290.597534 435.343262,287.659576 437.714905,285.401062 
	C439.357941,283.836426 438.165741,282.318756 437.039734,281.043793 
	C433.523804,277.062775 432.167999,272.431427 432.597504,267.182495 
	C432.702759,265.896240 433.050110,264.259918 431.641174,263.535431 
	C427.642273,261.479248 429.505890,259.114075 431.028564,256.626343 
	C432.156982,254.782730 433.098572,252.825867 434.188721,250.957565 
	C437.185669,245.821732 439.810303,245.395706 444.501923,249.238022 
	C451.788849,255.205826 454.161835,268.132019 449.670166,277.201843 
	C445.845398,284.925018 439.925629,290.603638 432.577850,294.925140 
	C430.725830,296.014374 428.320251,296.998657 428.529846,299.517792 
	C428.761658,302.304352 431.447723,302.951263 433.661682,303.564880 
	C437.664520,304.674225 441.687653,305.985565 445.784607,306.400696 
	C449.683807,306.795776 451.229523,308.776306 452.171295,312.164001 
	C453.422150,316.663666 455.131775,320.989960 458.088745,324.729340 
	C459.924011,327.050262 462.049255,327.866852 465.065979,327.367004 
	C475.055969,325.711884 477.412476,327.256958 480.399963,336.578705 
	C480.840973,337.954742 481.166138,339.101288 480.104248,340.260986 
	C478.792419,341.693665 477.421417,341.120575 476.030609,340.409637 
	C472.546570,338.628754 468.892944,337.530426 464.953949,338.220245 
	C462.235779,338.696289 459.686615,339.666779 459.245148,342.915497 
	C457.678070,354.447968 463.879913,363.561615 475.604584,361.505249 
M438.356873,471.994324 
	C444.066406,445.511963 450.442108,419.162842 453.947510,392.244659 
	C454.675354,386.655426 453.727570,381.490692 451.158173,376.605652 
	C447.364258,369.392426 442.061554,363.326752 436.177063,357.275513 
	C429.713348,370.687531 424.142700,384.243439 416.112427,396.526184 
	C414.807861,398.521576 416.350616,399.557526 417.684937,400.591095 
	C421.833221,403.804291 426.728668,405.476135 431.539734,407.337524 
	C432.890106,407.859985 434.584717,408.328949 434.264557,410.342957 
	C433.963623,412.235870 432.474487,412.444794 430.866943,412.528229 
	C426.384399,412.760956 421.909424,413.151825 417.425568,413.343170 
	C410.248840,413.649384 408.630615,415.739624 410.416809,422.739807 
	C414.610474,439.175018 417.348663,455.804443 418.035553,472.798004 
	C418.401367,481.847778 417.691559,490.933075 419.411499,500.011627 
	C419.797089,502.047058 423.095184,504.785156 419.895294,507.533875 
	C417.001282,510.019836 417.755096,513.246765 419.398712,516.039917 
	C420.403137,517.746704 421.543060,519.532776 420.198975,521.029175 
	C417.141235,524.433472 418.620087,528.229309 418.558868,531.938721 
	C418.504272,535.244812 420.487427,537.122009 423.246368,537.242371 
	C426.679932,537.392212 427.401306,534.288391 427.557526,531.574280 
	C428.709869,511.552032 434.234436,492.325958 438.356873,471.994324 
M610.833374,517.379517 
	C606.838135,520.620605 602.835938,523.853088 598.848938,527.104309 
	C579.516174,542.869446 560.343018,558.827820 540.639465,574.139832 
	C531.069763,581.576660 521.952698,589.595459 512.619385,597.337158 
	C504.802032,603.821350 496.970215,610.288025 489.140564,616.757385 
	C486.264923,619.133362 484.369171,621.484924 488.105499,624.853882 
	C490.332489,626.861938 492.011169,629.439209 492.971008,632.330505 
	C494.144440,635.865173 495.769775,636.350708 498.727295,633.905823 
	C506.426544,627.540894 514.301575,621.389221 522.068665,615.105713 
	C547.824280,594.269592 573.559937,573.408813 599.309937,552.565857 
	C612.250061,542.091675 625.225525,531.661072 638.124268,521.136292 
	C639.584473,519.944885 642.041565,518.735291 641.211182,516.452576 
	C639.052979,510.519409 639.336426,504.053802 637.115967,497.710632 
	C627.097412,502.655121 619.913574,510.706268 610.833374,517.379517 
M425.247009,196.349640 
	C420.747711,193.667603 416.248383,190.985565 411.789642,188.327698 
	C409.854187,190.335144 408.590454,192.304596 408.586487,194.387192 
	C408.571136,202.456192 405.469025,209.629089 402.249084,216.690826 
	C398.252502,225.455765 393.819946,234.006622 391.351288,243.399292 
	C387.581268,257.743317 389.696411,271.079285 398.187714,283.243500 
	C401.236542,287.611023 404.865540,287.661316 408.636505,283.957611 
	C411.300171,281.341400 413.063904,278.135040 414.541199,274.782166 
	C418.362000,266.110504 422.500031,257.603271 426.995087,249.257172 
	C433.300018,237.550659 438.023102,225.379242 435.603882,211.708801 
	C434.497589,205.457199 432.860779,199.273163 425.247009,196.349640 
M412.803406,356.228241 
	C410.259155,360.921478 412.106201,364.446747 415.860504,367.380798 
	C418.156982,369.175629 419.514252,370.849579 415.887268,372.889313 
	C414.142303,371.483612 412.496155,370.104492 410.794525,368.797577 
	C407.020416,365.898804 402.981415,363.688049 397.982819,364.154388 
	C396.812805,364.263580 395.486481,364.322510 394.994934,365.569702 
	C394.396606,367.087830 395.452179,368.077240 396.588684,368.853851 
	C397.686707,369.604187 398.844055,370.269165 399.987793,370.950775 
	C402.649475,372.536987 402.183319,374.203003 400.316345,376.001831 
	C389.649323,371.289398 388.643829,371.726654 385.664978,383.365753 
	C383.201050,392.993011 378.472839,401.176849 371.193176,407.945831 
	C366.744598,412.082245 367.516724,422.202850 372.997833,424.929291 
	C380.139069,428.481476 386.688995,433.487793 395.492279,433.367065 
	C401.848602,433.279907 406.701385,428.730927 405.252716,422.524414 
	C404.761353,420.419281 404.125763,418.343597 403.724640,416.222595 
	C403.046783,412.638062 403.755829,410.001312 408.121552,409.503754 
	C410.697144,409.210236 411.367401,407.989532 411.490295,404.836304 
	C411.601807,401.973877 408.092560,399.794220 410.681946,396.690033 
	C417.714844,388.258759 421.213318,377.897949 425.844238,368.143768 
	C428.979584,361.539825 432.838715,355.244568 434.422302,348.019501 
	C436.303131,339.438202 432.236053,333.531006 424.560608,333.489624 
	C420.826355,340.853363 417.608093,348.545563 412.803406,356.228241 
M622.397156,388.050873 
	C612.987854,382.322784 602.272339,380.292969 591.866516,377.474640 
	C587.719788,376.351562 586.547607,378.034180 588.145386,381.946655 
	C589.213501,384.561890 590.479553,387.095917 591.560791,389.706177 
	C599.151123,408.031250 604.856995,426.934601 608.989685,446.329224 
	C612.022644,460.563141 614.945007,474.785431 616.082397,489.358337 
	C616.475220,494.390625 615.167297,500.058563 619.232727,504.762878 
	C622.928955,502.714691 626.712036,501.170380 625.445129,495.872284 
	C623.753357,488.797638 624.471436,481.904114 627.890259,475.508270 
	C629.964111,471.628632 629.670532,469.160095 625.893066,466.342499 
	C617.987183,460.445404 618.023376,459.465057 621.052429,449.923767 
	C625.789856,435.001373 629.060364,419.731659 631.527954,404.283722 
	C631.822205,402.441589 631.676025,400.766418 630.415466,399.121063 
	C627.790222,395.694397 625.402954,392.085419 622.397156,388.050873 
M372.199554,258.420380 
	C375.555542,261.110443 379.141510,261.683533 382.745117,259.109039 
	C385.130219,257.405060 385.651794,249.157761 383.849915,245.366165 
	C382.728302,245.688171 382.527374,246.739914 382.049927,247.596802 
	C381.286499,248.966858 380.852570,251.210373 378.586639,250.088196 
	C376.299530,248.955505 377.299805,246.923874 378.042328,245.290619 
	C379.447662,242.199554 381.359741,239.326202 384.661469,238.150635 
	C387.495453,237.141586 388.967834,235.245651 389.936432,232.643066 
	C393.162750,223.973999 397.812500,215.962234 401.091705,207.235321 
	C403.805573,200.012970 404.600159,192.881195 405.634827,185.575470 
	C405.920959,183.554794 405.633575,181.467087 404.132019,179.958466 
	C394.722717,170.504684 384.877075,161.585114 373.032379,155.180115 
	C371.253571,154.218216 369.177979,153.726089 368.213531,155.765076 
	C365.688110,161.104172 360.681854,164.792770 358.458801,170.134094 
	C355.708832,176.741425 351.099243,180.535095 344.362549,182.214691 
	C338.959686,183.561722 337.208008,189.253983 340.626556,194.073883 
	C341.453278,194.028625 341.677948,193.383224 341.943176,192.777664 
	C342.616058,191.241226 343.263763,189.295685 345.405396,190.134766 
	C347.329041,190.888489 346.881805,192.915970 346.683685,194.538696 
	C346.462555,196.349716 346.200623,198.181717 345.689056,199.926163 
	C344.411896,204.281540 345.702850,207.331116 349.810699,209.364517 
	C354.843170,211.855621 357.060730,216.275284 358.156219,221.605408 
	C359.519653,228.239517 361.116028,234.833298 362.848999,241.381744 
	C364.481445,247.550461 367.038513,253.307617 372.199554,258.420380 
M322.784363,283.722382 
	C312.527374,279.006226 307.433960,281.168091 303.731476,291.585236 
	C301.509155,297.837738 299.165222,304.065063 295.174683,309.486572 
	C291.740326,314.152496 293.134064,318.648468 295.853516,322.934174 
	C297.315765,325.238586 299.360931,327.020203 302.469879,326.460449 
	C306.673096,325.703705 312.840363,320.228577 313.610718,316.589050 
	C311.621338,315.573883 308.824615,317.443146 307.280487,314.940582 
	C307.261597,314.688690 307.173340,314.452118 307.248260,314.375885 
	C311.560852,309.988159 316.911407,306.393829 318.019196,299.604980 
	C318.169922,298.681274 319.578064,298.434875 320.619751,298.808289 
	C321.947144,299.284119 322.280273,300.359406 322.018951,301.630402 
	C321.723816,303.065979 321.458923,305.851257 322.809845,305.267242 
	C329.818420,302.237427 331.098511,308.092957 333.933441,311.683044 
	C334.328735,312.183624 335.031616,312.429535 335.544830,312.850861 
	C337.599945,314.537994 339.768951,316.113129 341.657867,317.971497 
	C352.352264,328.492920 353.333252,341.785645 351.806488,355.549500 
	C351.339233,359.761841 351.676880,363.145630 355.241394,365.650391 
	C358.110626,367.666534 359.736298,373.114899 363.442596,371.706726 
	C367.260071,370.256348 367.082367,364.865631 367.493530,361.036926 
	C367.992065,356.394958 369.636597,351.413239 366.283844,347.035339 
	C363.459595,343.347534 362.426849,339.076263 361.584991,334.586914 
	C359.881073,325.500824 358.865356,316.320282 353.399353,308.180176 
	C345.835541,296.915924 334.912689,290.266174 322.784363,283.722382 
M510.306305,592.769287 
	C514.713135,589.503479 519.105103,586.217285 523.532288,582.979248 
	C526.364197,580.907959 527.962158,578.927368 524.172180,576.107239 
	C523.003174,575.237305 521.519409,573.591064 523.157593,571.845825 
	C524.879272,570.011658 526.424805,571.267456 527.952942,572.417847 
	C529.350586,573.469910 530.111633,575.580750 532.351318,575.280090 
	C536.123291,574.773804 543.264709,565.957703 543.993958,562.099976 
	C545.246155,555.476624 543.263733,548.933777 543.998291,542.418884 
	C545.070007,532.912415 543.019348,523.678223 542.152588,514.341919 
	C541.948608,512.144653 541.732849,509.637817 538.207458,508.403992 
	C526.744263,537.605835 513.186707,565.818542 504.072845,596.043579 
	C507.326324,596.507935 508.278748,594.389526 510.306305,592.769287 
M391.920166,283.771240 
	C390.738617,282.521667 390.507568,280.312500 387.982117,280.041901 
	C386.866394,282.634705 386.424896,285.346466 386.254883,288.159210 
	C385.963684,292.977539 385.636627,297.796356 385.181000,302.601379 
	C384.708557,307.583374 382.698914,308.772125 378.213013,306.479858 
	C372.215759,303.415405 367.057251,299.239929 363.186615,293.651489 
	C354.199066,280.675140 351.271667,266.442291 354.294678,250.932068 
	C356.097565,241.682037 356.575745,232.436493 353.170258,223.380951 
	C352.495209,221.585983 352.218079,218.916351 349.508057,219.609406 
	C347.382111,220.153091 347.768707,222.537521 347.754730,224.328461 
	C347.723724,228.297180 349.104919,232.070358 348.691315,236.189087 
	C347.596985,247.086075 345.573334,257.946808 346.204132,268.958435 
	C346.951233,282.000427 349.736938,294.473053 359.358276,304.101044 
	C366.633087,311.380859 374.952545,317.103088 385.788055,317.765411 
	C388.367065,317.923065 390.905731,317.402344 391.452423,314.795502 
	C393.530182,304.887115 393.295624,294.833527 392.598236,284.788391 
	C392.588135,284.642700 392.428162,284.507446 391.920166,283.771240 
M388.631775,358.850861 
	C391.171143,360.619568 393.912598,358.487213 396.388611,359.152435 
	C404.855896,361.427307 408.651123,355.926910 411.870544,349.881683 
	C414.602661,344.751556 416.833282,339.346863 419.131989,333.997589 
	C419.912842,332.180511 422.115051,329.640686 419.416901,328.339020 
	C416.784424,327.068970 414.798798,329.401733 413.788696,331.890656 
	C413.041260,333.732452 412.645691,335.713837 411.991211,337.597504 
	C411.359589,339.415253 411.200043,341.590515 408.381134,342.529541 
	C405.244904,339.503021 403.219879,335.639252 401.358215,331.568481 
	C399.387390,327.259033 396.458313,322.561432 391.578033,322.742035 
	C383.930847,323.025055 377.129822,321.347626 370.494049,318.016541 
	C369.020813,317.277008 367.490082,316.182648 365.959198,317.783081 
	C364.719635,319.078888 364.474335,320.736603 364.879761,322.448944 
	C365.490448,325.027863 366.897430,327.259491 369.398682,328.058655 
	C375.602417,330.040710 378.634613,334.941162 381.075226,340.307098 
	C383.737640,346.160736 387.257172,351.704895 388.631775,358.850861 
M396.748840,315.488129 
	C399.451324,317.896667 399.676392,315.266937 400.164642,313.694641 
	C401.098572,310.687042 401.735626,307.585846 402.705353,304.591370 
	C403.198273,303.069305 403.914032,301.045044 406.103180,301.868011 
	C408.415680,302.737305 407.233612,304.601746 406.686188,306.097595 
	C404.421509,312.285950 403.430115,318.646637 404.429321,325.184082 
	C404.837036,327.851624 405.161438,330.768402 408.419739,332.747375 
	C410.974152,328.591217 412.144684,323.928223 415.298065,320.526611 
	C417.476898,318.176239 419.743347,315.381714 422.815918,319.673859 
	C423.567596,320.723999 424.899597,320.737732 426.034943,320.311707 
	C428.280151,319.469238 431.727936,319.345886 431.584625,316.261292 
	C431.419189,312.700989 432.348083,308.370453 428.196777,306.004395 
	C423.865814,303.536011 421.293854,300.749146 422.133453,294.861115 
	C422.825806,290.005402 420.149872,285.172943 418.287811,280.347717 
	C415.308990,281.945740 414.467072,284.482452 412.778046,286.270508 
	C410.096710,289.109161 407.356689,291.902618 403.039246,291.335815 
	C398.972992,290.802002 397.699036,292.891968 397.474243,296.419556 
	C397.084106,302.540741 397.706970,308.714142 396.748840,315.488129 
M317.465515,390.003937 
	C314.710785,391.527740 311.668762,392.696320 309.258301,394.645813 
	C303.394928,399.387787 304.399811,403.504791 310.910095,406.878784 
	C318.594788,410.861420 326.853302,412.123352 335.116913,413.621796 
	C338.286987,414.196625 342.161194,414.249481 343.754425,411.354126 
	C346.364960,406.610016 348.786499,401.603760 349.708282,396.112762 
	C350.179535,393.305237 348.781738,391.468689 346.759644,389.707489 
	C341.350098,384.995819 334.346954,386.794891 328.205994,385.064087 
	C324.130554,383.915466 321.427887,387.959229 317.465515,390.003937 
M757.348877,428.902496 
	C760.669312,430.205994 763.284851,432.554749 765.945740,434.805542 
	C767.846558,436.413361 769.453430,436.403198 771.057800,434.452820 
	C772.007690,433.298096 772.915955,432.047791 774.077026,431.139954 
	C777.186035,428.709167 776.135559,426.623016 773.634460,424.753845 
	C769.117737,421.378357 764.883179,417.637024 759.971497,414.771545 
	C749.958679,408.930084 740.018188,402.990387 728.095642,401.894440 
	C724.455994,401.559875 719.270874,404.807831 718.511108,408.202759 
	C718.047791,410.272919 718.185242,412.252289 721.174866,412.413971 
	C724.790466,412.609497 727.200073,414.720123 729.231934,417.573456 
	C731.368408,420.573792 733.954773,423.117981 737.678833,424.194702 
	C743.920898,425.999451 749.656372,429.925171 757.348877,428.902496 
M334.380646,192.913605 
	C334.119049,191.272614 334.263306,189.414444 333.522491,188.029877 
	C330.926300,183.177689 333.823334,181.378250 337.632294,179.969116 
	C340.751831,178.815048 343.992371,177.940735 347.006866,176.564713 
	C349.609131,175.376846 351.980072,173.605103 351.852692,170.234482 
	C351.731049,167.015289 350.173248,164.346741 347.479004,162.796051 
	C344.638275,161.161072 341.933838,162.564926 339.737366,164.528549 
	C338.142212,165.954575 336.883118,167.750656 335.417084,169.328720 
	C334.062103,170.787262 333.038177,173.791031 330.423279,171.660599 
	C328.093140,169.762177 329.974579,167.749817 331.346558,166.077255 
	C333.777954,163.113098 336.113953,160.168762 333.228729,155.541946 
	C327.226166,166.627289 319.377289,177.050140 321.977783,189.950134 
	C324.416382,202.047150 331.481445,212.158173 341.050232,220.443604 
	C342.384155,213.387054 342.058197,206.660339 338.076904,200.682617 
	C336.587524,198.446381 334.852356,196.479309 334.380646,192.913605 
M295.551056,353.357971 
	C290.779114,353.482056 289.090790,356.297150 289.465302,360.625153 
	C290.176636,368.844482 292.126251,376.671295 296.834381,383.656860 
	C298.362457,385.924164 299.928925,386.764252 302.663177,385.894592 
	C307.417114,384.382538 312.260529,383.146332 317.084259,381.861572 
	C319.262024,381.281586 320.577667,380.061096 320.798950,377.751099 
	C321.036987,375.266663 321.314392,372.785828 321.592102,370.305389 
	C321.929871,367.289124 320.776611,365.400146 317.591858,365.246948 
	C312.802734,365.016693 309.247406,362.431396 305.629395,359.618622 
	C302.685150,357.329712 300.535889,353.736938 295.551056,353.357971 
M366.262695,260.292511 
	C364.159119,258.758087 363.256470,255.904572 360.598267,254.952545 
	C351.447601,268.157349 367.398376,297.290131 379.709778,300.756927 
	C381.054138,290.256348 382.471558,279.816925 383.673706,269.352783 
	C383.975555,266.725403 381.896362,265.946320 379.685883,266.118652 
	C374.445618,266.527191 370.373596,264.277405 366.262695,260.292511 
M332.288116,344.116364 
	C334.824799,348.762238 339.066711,347.933014 343.136108,347.735077 
	C345.280457,337.263428 336.952759,322.281921 326.920258,318.290436 
	C324.389618,317.283600 321.570953,316.204559 319.697418,319.024261 
	C317.493958,322.340668 312.145844,324.244446 314.418304,329.757202 
	C315.537170,332.471558 315.531128,335.271484 313.237122,337.074646 
	C310.858795,338.944061 309.502319,336.084473 307.903107,334.922668 
	C305.378906,333.088959 302.543091,332.071747 300.299408,334.615417 
	C298.137970,337.065887 299.963867,339.717163 301.661560,341.772614 
	C306.593536,347.743896 312.510437,348.226105 318.061584,342.806152 
	C321.967987,338.992035 325.289429,334.585602 329.026917,330.588409 
	C330.600800,328.905090 332.561890,327.493286 335.474762,330.269226 
	C330.793732,333.761841 328.815918,338.056030 332.288116,344.116364 
M512.400757,286.966919 
	C509.634369,288.924774 505.741730,290.331055 508.074249,294.973450 
	C509.591187,297.992645 511.971039,299.183624 515.501953,297.968262 
	C515.408020,297.120239 515.422729,296.461273 515.251526,295.854767 
	C514.710632,293.938263 512.421021,291.769409 515.244507,290.196960 
	C518.194214,288.554230 519.636658,291.133392 521.206360,293.113495 
	C522.905945,295.257477 523.426758,298.383331 526.306641,299.532990 
	C532.399231,295.650726 533.262939,296.046021 535.455566,303.007050 
	C536.059021,304.922913 536.002625,307.443970 539.398682,308.430603 
	C541.774170,302.001678 541.486023,295.763641 538.111084,289.979187 
	C536.077576,286.493805 533.880127,283.419678 536.160828,279.529938 
	C534.114502,277.774628 531.917236,278.564301 530.081421,277.891754 
	C523.564941,275.504639 518.131653,275.632965 515.579895,283.561310 
	C515.210876,284.707825 513.867310,285.540649 512.400757,286.966919 
M367.605072,429.630066 
	C367.319244,428.336823 367.196625,426.979858 366.720917,425.760712 
	C363.741058,418.123383 363.628174,407.580200 350.752838,409.703674 
	C350.517731,409.742462 349.985321,408.699310 349.048920,409.412476 
	C346.576263,414.064514 347.317505,420.401733 349.478302,423.400574 
	C352.303619,427.321533 352.586426,431.097076 353.288818,435.079895 
	C354.160645,440.023529 356.690094,443.102539 361.419128,444.729675 
	C366.122345,446.347931 368.932709,444.758453 368.898560,439.750702 
	C368.877350,436.639160 368.082367,433.532898 367.605072,429.630066 
M368.858765,372.348877 
	C366.225494,377.136902 363.592194,381.924927 361.134338,386.393982 
	C362.652557,391.206329 366.869171,394.553925 366.921631,399.679749 
	C371.849426,400.521942 374.684326,397.509308 376.933563,393.880737 
	C381.242737,386.929077 382.878754,379.113190 383.597748,371.097992 
	C383.938690,367.297394 383.314545,362.736359 379.298920,362.106476 
	C375.722076,361.545410 374.299194,365.853241 373.412506,369.120453 
	C372.824982,371.285431 372.151123,372.993683 368.858765,372.348877 
M656.966370,426.451233 
	C649.873291,427.669800 643.007507,429.666046 636.572693,432.902557 
	C632.967712,434.715759 631.882629,439.388184 634.306824,441.552673 
	C638.139832,444.975006 643.326416,445.938354 647.580505,442.707947 
	C654.093994,437.761780 660.198120,433.155670 669.219727,435.739319 
	C672.044800,436.548370 674.134338,433.471802 674.448792,430.766296 
	C674.743164,428.233459 672.747131,426.805481 670.190857,426.084381 
	C665.994080,424.900604 661.929504,425.798676 656.966370,426.451233 
M470.698853,517.136292 
	C475.381409,511.071442 479.360535,504.538147 483.311615,497.994537 
	C484.295380,496.365356 485.747345,494.292786 483.513947,492.647369 
	C479.552643,489.728882 475.399445,487.070831 470.807129,483.950928 
	C465.568176,494.453308 463.679352,504.787079 465.934814,515.724670 
	C466.334778,517.664307 467.616211,519.670959 470.698853,517.136292 
M315.377960,360.349548 
	C316.861572,360.428741 318.346222,360.590881 319.828644,360.572968 
	C326.635803,360.490784 332.886780,357.050171 339.849579,357.409698 
	C342.269531,357.534698 343.705261,355.231384 343.490417,351.826904 
	C337.297546,353.012421 331.537842,352.445953 328.164307,346.577789 
	C325.631897,342.172821 323.543579,343.087402 320.645508,346.149628 
	C317.041199,349.958099 312.667938,352.010986 307.195404,350.457672 
	C306.171967,350.167206 304.890137,349.837860 304.038818,351.053986 
	C306.220062,355.161133 308.755219,357.319977 315.377960,360.349548 
M273.792969,319.289398 
	C274.238220,321.941040 273.823059,324.498871 273.463715,327.157562 
	C272.831329,331.836151 271.850800,336.859863 273.472046,341.298615 
	C275.508514,346.874054 289.235260,351.242432 294.686066,348.753540 
	C296.101868,348.107056 297.504120,347.309113 297.297028,345.534607 
	C297.109497,343.927734 295.927032,342.887878 294.354401,342.500854 
	C293.394958,342.264709 292.371948,342.301727 291.390106,342.139496 
	C281.225983,340.460236 277.287781,335.771423 277.538208,325.502991 
	C277.615051,322.351379 277.940582,319.205688 278.157440,316.057678 
	C278.256866,314.614746 278.757965,313.055420 276.801117,312.030792 
	C274.004395,313.302429 273.363129,315.672943 273.792969,319.289398 
M294.508698,290.498993 
	C288.462616,292.175049 287.090607,297.348846 286.290344,302.412415 
	C285.382660,308.155640 284.740082,313.935852 283.620941,319.660919 
	C282.823975,323.737915 282.593689,327.938843 283.996307,332.010468 
	C284.956787,334.798676 286.920776,336.394775 289.858368,336.715942 
	C291.484192,336.893707 292.949829,336.463257 293.510132,334.786530 
	C294.343018,332.294159 294.242371,329.861389 292.400726,327.739044 
	C291.745911,326.984467 291.098816,326.218475 290.508636,325.413361 
	C286.170288,319.494873 286.024292,313.357117 290.250336,307.428833 
	C292.685730,304.012482 294.769165,300.437073 296.095734,296.458771 
	C296.775085,294.421448 297.668579,292.256470 294.508698,290.498993 
M445.197388,213.118347 
	C448.127167,217.794479 449.494965,217.912994 457.354431,214.171860 
	C462.694336,211.630051 463.750732,202.094543 458.986176,198.490265 
	C456.071625,196.285461 453.002014,196.449661 450.677032,199.373169 
	C447.673065,203.150543 445.700348,207.476135 445.197388,213.118347 
M453.593781,636.531860 
	C441.913574,628.226562 443.211395,627.682556 436.701294,640.452637 
	C436.102600,641.627075 435.663452,642.888123 435.212494,644.131531 
	C433.962891,647.576782 434.756042,650.537109 437.567871,653.524048 
	C443.092682,648.577942 448.488251,643.779114 453.813324,638.903259 
	C454.140106,638.604004 453.909668,637.696167 453.593781,636.531860 
M448.000153,328.796295 
	C448.786407,331.851929 449.530548,334.919281 450.378143,337.957794 
	C450.753448,339.303253 451.687408,340.786560 453.112640,340.297882 
	C455.580872,339.451630 456.578461,336.850616 457.995178,334.867676 
	C459.131744,333.276917 457.658813,332.035400 456.611084,331.045593 
	C452.257141,326.932678 449.457153,321.916931 447.665070,316.263519 
	C447.366089,315.320435 446.945679,314.388580 446.425781,313.547729 
	C444.698608,310.754486 441.740997,310.686188 438.951172,310.385071 
	C437.910095,310.272705 436.808502,310.748627 436.799194,311.958344 
	C436.779510,314.514923 438.548889,316.162140 440.193848,317.813751 
	C440.779205,318.401489 441.457855,318.895508 442.084351,319.443268 
	C444.765533,321.787445 446.893585,324.503326 448.000153,328.796295 
M493.769226,193.240448 
	C490.724548,196.327728 488.682098,199.808441 489.273315,204.376068 
	C489.562897,206.613480 490.926544,207.925018 492.862244,208.787949 
	C494.130951,209.353531 495.181396,208.977554 495.878876,207.849228 
	C499.417603,202.124725 502.808105,196.291504 509.175140,192.761948 
	C503.485199,188.308899 501.290955,188.436249 493.769226,193.240448 
M463.474182,260.202332 
	C465.187622,264.929535 468.554657,267.525513 473.579376,267.601593 
	C478.629974,267.678070 481.040558,264.541443 479.531128,259.801453 
	C478.192871,255.598969 475.687256,252.344604 470.812653,252.137314 
	C465.809357,251.924576 464.909210,256.058899 463.474182,260.202332 
M579.302246,863.478882 
	C576.227905,864.297852 572.920593,864.720642 571.024963,868.024536 
	C581.622498,871.012634 591.682495,867.802673 601.811462,867.121399 
	C604.987854,866.907837 605.550903,864.499390 605.041565,861.485962 
	C596.605835,862.122131 588.379761,862.742493 579.302246,863.478882 
M348.610413,149.093964 
	C348.113190,149.089569 347.615662,149.072495 347.118744,149.082870 
	C344.213989,149.143494 342.431671,150.416351 342.205322,153.501144 
	C341.966034,156.762192 344.360901,156.606491 346.478668,156.987534 
	C349.196320,157.476486 351.281647,159.106674 353.203949,161.000397 
	C355.901886,163.658188 358.181641,162.880249 360.213226,160.088028 
	C362.898621,156.397217 361.982086,152.675262 357.709930,150.751480 
	C355.126678,149.588211 352.337494,149.086075 348.610413,149.093964 
M400.736969,144.752808 
	C404.364166,145.067764 406.180786,143.331146 405.773804,139.781281 
	C405.400604,136.525650 404.407379,133.330292 400.231323,133.403687 
	C397.258453,133.455948 394.296204,133.999847 391.324280,134.269623 
	C389.834686,134.404846 388.103729,134.227448 387.595520,136.040359 
	C387.018799,138.097672 388.762390,138.985535 390.127441,139.850449 
	C393.220398,141.810196 396.490082,143.439117 400.736969,144.752808 
M642.763306,528.858215 
	C645.277954,531.037476 647.362244,533.560425 649.307800,536.273743 
	C650.812744,538.372803 653.055786,538.447327 654.828003,536.435303 
	C656.305115,534.758484 657.655029,532.263000 654.950989,531.009766 
	C651.543213,529.430420 649.694885,526.569397 647.367737,524.053467 
	C645.802002,522.360718 644.302795,521.724854 642.280090,523.488953 
	C640.277954,525.234985 640.363708,526.755920 642.763306,528.858215 
M631.113708,857.105103 
	C623.306091,853.597046 615.220337,854.699402 607.041382,855.447632 
	C611.492981,859.417480 617.448608,859.599670 622.248962,862.381226 
	C622.548706,862.554871 623.719116,861.984619 623.858826,861.556335 
	C625.028687,857.970215 628.117676,858.059753 631.113708,857.105103 
M480.221222,193.856781 
	C479.276123,195.884293 478.867188,198.070129 479.619843,200.145187 
	C480.366333,202.203186 482.565399,204.178955 483.815308,201.418274 
	C486.072449,196.432983 489.020386,191.998169 492.706940,187.875534 
	C487.696716,185.427383 484.348450,187.020508 480.221222,193.856781 
M445.501984,275.778259 
	C446.686493,271.499207 449.174103,267.222931 445.788666,262.601532 
	C442.154449,264.309021 440.136200,267.309692 438.178070,269.994537 
	C436.166138,272.753174 438.576721,275.321075 440.451294,277.384125 
	C442.329102,279.450714 443.946472,278.564606 445.501984,275.778259 
M449.507294,445.055695 
	C451.348999,435.499054 453.190674,425.942444 455.032349,416.385803 
	C454.782532,416.340332 454.532715,416.294861 454.282867,416.249390 
	C450.251129,435.773285 446.219360,455.297211 442.187622,474.821106 
	C442.438477,474.874390 442.689331,474.927643 442.940216,474.980927 
	C445.061005,465.280182 447.181793,455.579407 449.507294,445.055695 
M325.531586,149.343521 
	C321.150299,152.574966 320.839508,154.757431 324.412079,158.373154 
	C327.849182,155.718018 329.086853,152.041428 329.934967,147.509186 
	C328.276550,148.178711 327.208649,148.609848 325.531586,149.343521 
M704.025635,699.574097 
	C705.706665,697.785950 707.387695,695.997803 709.068665,694.209656 
	C701.417786,697.705139 694.434998,705.904358 694.477295,710.577881 
	C698.669006,707.782104 700.034729,702.959717 704.025635,699.574097 
M808.161438,665.048218 
	C811.093506,665.497986 812.359741,663.442810 814.261414,661.202209 
	C811.478821,660.681274 810.112732,656.754333 807.045593,659.717834 
	C805.105103,661.592712 805.987732,663.226196 808.161438,665.048218 
M781.467834,662.778931 
	C783.858948,659.420410 788.076721,658.088257 790.372681,654.610657 
	C785.190979,656.760132 780.128540,659.040833 777.556641,665.030457 
	C779.619507,665.164551 780.204590,664.026611 781.467834,662.778931 
M430.688232,559.957397 
	C430.832275,560.255249 430.950958,560.570007 431.133057,560.842407 
	C431.204010,560.948547 431.417603,560.959229 431.566223,561.013428 
	C432.148438,556.909546 433.731903,552.777771 431.290710,548.223267 
	C428.556305,552.141541 429.340851,555.765259 430.688232,559.957397 
M731.981812,623.527771 
	C730.122986,627.096924 727.383911,630.238037 726.940247,634.549072 
	C729.854492,628.942444 733.331543,623.711975 737.560181,617.945190 
	C734.901672,619.540588 733.590820,621.207336 731.981812,623.527771 
M682.461609,590.914673 
	C682.331909,587.908875 682.331909,587.908875 679.928040,586.802368 
	C679.964355,590.933838 682.328552,593.505005 685.176819,596.531555 
	C685.795410,594.577698 686.256897,593.120117 686.752319,591.555359 
	C685.191101,591.231445 683.883240,593.606873 682.461609,590.914673 
M734.706299,715.441040 
	C734.636475,715.752930 734.533569,716.062866 734.514343,716.377869 
	C734.507385,716.491760 734.774475,716.733643 734.792725,716.722046 
	C739.129211,713.968689 743.454529,711.197815 747.780273,708.427551 
	C742.736938,709.347900 738.872437,712.101929 734.706299,715.441040 
M563.159241,798.973816 
	C564.552673,801.246338 564.939636,803.911743 565.920654,806.379211 
	C565.593079,802.336609 566.385925,798.109680 563.803467,794.309021 
	C562.613281,795.757141 562.816467,797.068115 563.159241,798.973816 
M719.205444,690.311157 
	C715.915649,692.574280 715.162659,696.283447 713.854187,699.687073 
	C716.384094,697.087708 718.505615,694.242615 719.205444,690.311157 
z"/>
<path fill="#000000" opacity="1.000000" stroke="none" 
	d="
M842.379761,715.067932 
	C846.230469,714.599487 848.069153,715.549744 848.771240,719.588562 
	C849.332336,722.817017 851.587402,725.750977 852.517456,729.345459 
	C839.625366,721.447571 829.226013,710.598755 817.676575,701.200989 
	C816.548645,700.283081 817.069641,698.745972 817.992798,697.511108 
	C820.225464,697.046265 822.005798,698.134766 822.965637,699.880554 
	C824.903870,703.405640 827.887451,705.943970 831.238281,707.534912 
	C835.312927,709.469421 837.231628,714.308777 842.379761,715.067932 
z"/>
<path fill="#000000" opacity="1.000000" stroke="none" 
	d="
M819.769653,690.810913 
	C820.761597,691.600952 820.990784,692.569763 820.160706,693.033203 
	C817.306213,694.626770 815.436035,692.128052 813.660645,690.796265 
	C811.810547,689.408508 812.548828,687.071472 813.938904,685.486694 
	C816.180298,682.931335 830.314941,681.666321 834.502380,683.971436 
	C830.881226,684.492920 827.935181,684.959045 824.977356,685.331726 
	C821.776672,685.735046 820.091492,687.611084 819.769653,690.810913 
z"/>
<path fill="#000000" opacity="1.000000" stroke="none" 
	d="
M689.258179,516.789246 
	C691.154053,518.530518 691.832825,522.181519 696.045227,520.699097 
	C693.058289,525.286072 688.916565,528.170776 684.968933,531.143250 
	C682.882446,532.714355 681.490601,530.512024 679.983643,528.897522 
	C682.069092,524.491272 688.794678,523.744507 688.953125,517.407349 
	C689.047485,516.958191 689.258179,516.789246 689.258179,516.789246 
z"/>
<path fill="#000000" opacity="1.000000" stroke="none" 
	d="
M706.790344,582.202148 
	C704.780029,580.401428 702.435974,578.557434 705.535889,576.544556 
	C708.705505,574.486450 711.923889,576.156433 713.659241,578.827942 
	C715.664001,581.914246 716.841553,585.597046 716.856689,590.566772 
	C713.301819,587.292175 710.704468,584.164673 706.790344,582.202148 
z"/>
<path fill="#000000" opacity="1.000000" stroke="none" 
	d="
M790.230835,767.553833 
	C788.594299,764.122559 786.259583,761.436890 785.398499,757.329102 
	C788.526733,758.523010 791.586426,758.899597 794.526917,760.969666 
	C792.934143,763.167114 793.834045,765.259277 795.273804,767.072998 
	C796.556458,768.688965 797.530762,770.521179 795.656067,771.809570 
	C793.530640,773.270142 792.525146,771.027466 791.523193,769.527222 
	C791.153320,768.973267 790.773987,768.425720 790.230835,767.553833 
z"/>
<path fill="#000000" opacity="1.000000" stroke="none" 
	d="
M824.162415,764.749207 
	C825.409607,766.022766 827.061951,766.503357 827.380249,769.285522 
	C820.286682,767.867065 817.378174,758.636047 809.088684,761.049927 
	C809.496826,758.102600 809.780090,756.057312 810.221924,752.867065 
	C815.171692,757.090393 819.532104,760.810852 824.162415,764.749207 
z"/>
<path fill="#000000" opacity="1.000000" stroke="none" 
	d="
M669.809326,522.099609 
	C668.581055,520.093567 667.445923,518.443298 666.463257,516.706787 
	C665.568604,515.125732 666.086426,513.710266 667.599670,512.897705 
	C669.182983,512.047485 670.662476,512.473022 671.128113,514.318298 
	C672.124084,518.265076 677.807068,521.060791 674.224121,526.261108 
	C671.554138,526.182556 671.097839,523.932007 669.809326,522.099609 
z"/>
<path fill="#000000" opacity="1.000000" stroke="none" 
	d="
M784.166321,754.028931 
	C782.226562,752.922852 780.013489,752.586914 779.752930,749.793884 
	C787.587830,752.164734 794.919373,755.035461 801.247070,760.305725 
	C798.859375,761.047729 798.875488,761.015320 793.039856,758.116516 
	C790.232422,756.721924 787.351318,755.475830 784.166321,754.028931 
z"/>
<path fill="#000000" opacity="1.000000" stroke="none" 
	d="
M714.331421,491.773346 
	C715.161499,494.324127 717.719238,495.961639 716.354126,499.792999 
	C711.393372,494.846497 710.080933,488.754395 707.452393,483.384277 
	C711.075989,485.004395 712.138062,488.621307 714.331421,491.773346 
z"/>
<path fill="#000000" opacity="1.000000" stroke="none" 
	d="
M836.278564,745.680176 
	C836.449402,745.232971 836.500122,745.074280 836.528137,744.911682 
	C836.752930,743.609802 837.181580,742.493713 838.754883,743.526184 
	C840.790894,744.862366 842.556763,751.822266 841.195374,752.982117 
	C839.720154,754.238953 838.757507,753.152405 837.961670,752.050110 
	C836.661316,750.249146 834.472595,748.669739 836.278564,745.680176 
z"/>
<path fill="#000000" opacity="1.000000" stroke="none" 
	d="
M688.942993,517.043701 
	C686.432068,514.895142 686.548340,511.322601 684.415466,508.874176 
	C683.575684,507.910187 683.737671,506.304993 684.746887,505.164337 
	C685.456177,504.362701 686.360229,504.006470 687.432678,504.396851 
	C689.251038,505.058746 688.428406,506.497742 688.509277,507.759216 
	C688.688232,510.548859 689.770386,513.263367 689.236694,516.455505 
	C689.258179,516.789246 689.047485,516.958191 688.942993,517.043701 
z"/>
<path fill="#000000" opacity="1.000000" stroke="none" 
	d="
M587.643066,187.840744 
	C584.637817,184.427734 586.586121,180.789185 587.269897,177.144104 
	C589.492126,180.524277 589.642456,184.037140 587.643066,187.840744 
z"/>
<path fill="#000000" opacity="1.000000" stroke="none" 
	d="
M697.373535,494.315613 
	C701.206604,496.033447 697.826416,499.636230 699.624817,501.979736 
	C697.036987,500.033905 693.807251,498.349670 697.373535,494.315613 
z"/>
<path fill="#000000" opacity="1.000000" stroke="none" 
	d="
M857.296875,727.182678 
	C853.662354,726.107849 853.332458,723.042847 852.430115,719.415955 
	C856.329956,721.081787 857.080811,723.904785 857.296875,727.182678 
z"/>
<path fill="#000000" opacity="1.000000" stroke="none" 
	d="
M661.746582,831.139832 
	C662.570374,834.214539 661.776611,836.561584 659.222900,838.363586 
	C659.209961,835.667908 658.195312,832.731445 661.746582,831.139832 
z"/>
<path fill="#000000" opacity="1.000000" stroke="none" 
	d="
M409.025177,735.052734 
	C399.118317,742.055237 390.256134,749.894836 379.848694,755.631836 
	C376.823975,757.299194 374.803040,757.401245 373.214111,754.642090 
	C371.280945,751.285278 374.087952,749.927490 376.465088,748.629944 
	C389.831207,741.334167 402.162323,732.641907 412.801819,721.677673 
	C414.304230,720.129395 415.608887,718.391113 417.066681,716.797119 
	C419.335693,714.316223 419.784180,714.282593 423.587708,716.107666 
	C421.084351,724.076111 414.225281,728.724609 409.025177,735.052734 
z"/>
<path fill="#000000" opacity="1.000000" stroke="none" 
	d="
M559.711365,440.888489 
	C560.755859,439.190674 561.096008,440.213654 561.130737,441.029724 
	C561.333496,445.793213 561.314636,450.530457 557.692505,455.374695 
	C557.638794,449.979736 558.698853,445.590942 559.711365,440.888489 
z"/>
<path fill="#000000" opacity="1.000000" stroke="none" 
	d="
M470.754700,167.727295 
	C474.482086,153.827988 469.100189,142.527512 462.110352,131.673599 
	C459.863647,128.184937 457.253479,124.930717 454.818390,121.562881 
	C453.550812,119.809814 452.700134,117.839058 454.839172,116.327736 
	C456.818176,114.929482 458.740082,115.798111 459.925385,117.748077 
	C466.983154,129.358994 475.157593,140.426544 476.800507,154.577133 
	C477.394501,159.693207 476.733948,164.525131 475.160828,169.295441 
	C474.521423,171.234375 474.108124,174.424332 471.424133,173.707870 
	C468.413879,172.904327 470.452332,170.116470 470.754700,167.727295 
z"/>
<path fill="#000000" opacity="1.000000" stroke="none" 
	d="
M490.213654,125.956619 
	C488.368317,124.181259 488.018066,122.547417 490.007538,121.143867 
	C491.734497,119.925499 493.418793,120.291794 494.945099,121.770187 
	C497.867401,124.600723 499.542847,128.571487 502.879028,130.901337 
	C504.300537,130.181595 503.967957,129.037155 504.207520,128.129593 
	C504.638794,126.495270 505.566193,125.403023 507.354126,125.581085 
	C509.098602,125.754829 509.991760,127.036522 510.141479,128.627945 
	C510.684357,134.397858 511.858673,140.344376 505.866943,144.424820 
	C505.001221,145.014359 504.640533,146.347076 504.049316,147.337753 
	C503.185944,148.784622 502.365265,150.419525 500.238251,149.541855 
	C498.417297,148.790482 497.755249,147.011322 498.229370,145.405167 
	C500.749359,136.868713 495.364441,131.650330 490.213654,125.956619 
z"/>
<path fill="#000000" opacity="1.000000" stroke="none" 
	d="
M466.385071,122.627136 
	C464.739227,120.561012 463.434326,118.626945 465.913879,116.801491 
	C467.961517,115.294006 469.937195,116.303276 471.083069,118.095467 
	C476.084686,125.918121 482.543121,132.879929 485.348663,142.016083 
	C487.727448,149.762573 487.594208,157.425995 484.618011,164.987000 
	C484.069458,166.380569 483.344391,168.024872 481.428589,167.354370 
	C479.561676,166.700974 479.876709,165.026962 480.338379,163.530579 
	C485.537384,146.679962 477.797760,134.204971 466.385071,122.627136 
z"/>
<path fill="#000000" opacity="1.000000" stroke="none" 
	d="
M495.262543,155.927368 
	C494.465851,157.944046 494.098267,160.162750 491.557190,159.399948 
	C490.038940,158.944168 489.860107,157.433289 490.250793,156.051529 
	C493.635193,144.081924 487.168671,135.282852 480.796082,126.434128 
	C479.735077,124.960892 478.644897,123.464241 477.885101,121.830978 
	C477.119354,120.185074 477.381073,118.488724 479.191467,117.553749 
	C480.831451,116.706779 482.087250,117.542809 483.022003,118.871979 
	C488.193359,126.225182 492.856506,133.880646 496.046082,142.317902 
	C497.720947,146.748322 496.296875,151.167038 495.262543,155.927368 
z"/>
<path fill="#000000" opacity="1.000000" stroke="none" 
	d="
M353.282898,495.123840 
	C356.863892,509.653046 347.761658,526.231323 330.781036,526.830750 
	C326.837189,526.969910 323.444275,525.049988 320.242554,522.832153 
	C311.901642,517.054260 307.899048,509.479462 309.385376,503.039673 
	C311.988525,491.761230 317.418701,483.381073 329.930878,481.830566 
	C339.770142,480.611237 348.491974,485.503876 353.282898,495.123840 
M316.970093,494.617004 
	C311.950958,503.319489 313.885040,512.775635 321.832092,518.387878 
	C329.209900,523.598206 339.347473,521.988342 345.533295,514.722717 
	C353.094208,505.841919 350.421356,490.880798 340.056549,488.108551 
	C331.392944,485.791321 323.601776,486.829803 316.970093,494.617004 
z"/>
<path fill="#000000" opacity="1.000000" stroke="none" 
	d="
M476.310089,306.971741 
	C475.644531,304.241119 474.878906,302.228119 471.864166,303.945374 
	C470.522308,304.709686 469.346161,304.231995 468.103729,303.608978 
	C465.285278,302.195618 462.619110,300.559082 459.945068,304.297363 
	C458.630005,306.135773 456.567841,304.919159 455.221741,303.505066 
	C453.859558,302.074127 453.992065,300.495880 455.254242,299.033295 
	C456.921661,297.101196 459.195557,296.886200 461.570679,296.630798 
	C466.610535,296.088776 467.689026,293.999634 465.308716,289.730042 
	C464.352325,288.014587 462.564850,286.186462 465.128845,284.648560 
	C467.408844,283.280914 468.876312,285.124298 469.924561,286.874725 
	C472.130524,290.558411 472.869324,295.542114 478.704498,295.779907 
	C479.790192,295.824158 480.172455,297.414581 480.355774,298.620300 
	C481.203461,304.196472 482.207306,309.752533 482.891632,315.348083 
	C483.178284,317.691925 482.732269,320.644714 479.878510,320.778503 
	C476.905823,320.917877 477.388977,317.831329 477.147827,315.808167 
	C476.813660,313.004120 476.650116,310.179749 476.310089,306.971741 
z"/>
<path fill="#000000" opacity="1.000000" stroke="none" 
	d="
M487.009308,281.337891 
	C480.834778,284.865204 475.185608,283.190582 469.613739,280.763123 
	C468.173462,280.135620 467.056610,278.977905 467.857666,277.222046 
	C468.635010,275.518158 470.193604,275.580536 471.697662,276.058716 
	C473.426697,276.608337 475.096802,277.343872 476.826813,277.889709 
	C481.108093,279.240540 484.715515,278.842346 486.478149,273.955109 
	C487.123779,272.165100 488.328674,270.954987 490.223877,271.942780 
	C492.165710,272.954895 491.570343,274.831207 490.753296,276.275940 
	C489.786621,277.985168 488.481964,279.503235 487.009308,281.337891 
z"/>
<path fill="#000000" opacity="1.000000" stroke="none" 
	d="
M395.163757,209.569519 
	C395.081970,211.489929 394.168274,212.208527 392.762299,212.712128 
	C390.806946,213.412506 390.224030,215.036179 390.087830,217.044647 
	C389.431641,226.719711 375.223480,236.244888 366.181091,233.000671 
	C362.752045,231.770386 360.882111,229.385040 361.353210,225.333984 
	C362.806702,212.835876 373.294006,197.800797 388.555176,197.534378 
	C391.716125,197.479202 393.436707,195.873856 393.734192,192.682312 
	C393.898651,190.917892 394.551300,189.077286 396.699219,189.612610 
	C398.830841,190.143890 398.225311,192.258621 398.100281,193.851883 
	C398.037262,194.654739 397.878845,195.699524 397.350067,196.176910 
	C393.141388,199.976791 393.617279,204.483109 395.163757,209.569519 
z"/>
<path fill="#000000" opacity="1.000000" stroke="none" 
	d="
M366.627960,178.410324 
	C369.730286,180.523972 372.430664,178.931046 375.055359,178.199585 
	C380.053345,176.806686 385.075836,175.728546 390.281494,175.887375 
	C392.247833,175.947357 394.785400,175.942642 395.098083,178.415726 
	C395.403687,180.832779 393.149384,181.076935 391.243317,181.190994 
	C389.062195,181.321503 388.415466,182.589157 388.733887,184.592484 
	C388.837677,185.245346 388.914795,185.922134 388.863220,186.576859 
	C388.448151,191.845078 384.321045,197.053238 380.180817,197.580170 
	C375.378540,198.191391 369.256012,194.440674 367.739594,189.383011 
	C366.750519,186.084137 365.650787,183.180237 362.525513,181.369141 
	C361.845367,180.974991 361.251923,180.230133 360.899872,179.509399 
	C359.926880,177.517715 357.684296,174.982422 360.119446,173.335175 
	C362.929047,171.434586 363.830170,174.867538 365.158356,176.586380 
	C365.562958,177.109955 365.946411,177.649872 366.627960,178.410324 
M379.331268,183.283936 
	C376.784424,181.322861 374.589417,182.583893 372.845734,184.378754 
	C371.587921,185.673462 371.886658,187.630692 373.144348,188.874130 
	C375.074005,190.781891 376.907288,193.349609 380.178467,192.493027 
	C381.957214,192.027252 383.179962,190.721497 381.545990,188.859543 
	C380.279877,187.416809 379.595184,185.863235 379.331268,183.283936 
z"/>
<path fill="#000000" opacity="1.000000" stroke="none" 
	d="
M366.451569,195.672302 
	C367.600800,199.066101 369.738617,201.970001 367.754303,205.427734 
	C364.281128,211.479843 352.280243,211.280670 348.536163,205.110703 
	C347.807861,203.910538 348.168182,202.906937 348.625824,201.824020 
	C350.556305,197.256104 351.134460,192.575211 349.996796,187.690369 
	C349.551086,185.776718 349.755493,183.732529 352.112183,183.385406 
	C354.659943,183.010147 355.113312,185.200394 355.080750,187.023575 
	C355.015381,190.686188 356.914062,191.887894 360.240601,192.233566 
	C362.518005,192.470200 364.839966,193.162552 366.451569,195.672302 
M358.353424,205.801331 
	C360.472412,206.318085 362.282013,206.426239 360.861481,203.379532 
	C359.922211,201.365021 358.788147,199.441330 357.733521,197.462418 
	C353.612396,200.232407 353.666748,202.149277 358.353424,205.801331 
z"/>
<path fill="#000000" opacity="1.000000" stroke="none" 
	d="
M382.314545,173.932495 
	C378.201874,174.505112 374.632660,173.963150 371.292114,172.278564 
	C369.985321,171.619568 368.390961,170.778336 369.186249,168.910538 
	C369.955322,167.104309 371.534729,167.331268 372.984650,168.092148 
	C375.569061,169.448410 378.260620,169.966019 381.158234,169.499100 
	C382.499939,169.282898 383.979156,169.226791 384.533875,170.797302 
	C385.086273,172.361267 384.011963,173.234756 382.314545,173.932495 
z"/>
</svg>